<svg width="16" height="16" viewBox="0 0 16 16" fill="none" xmlns="http://www.w3.org/2000/svg">
<path d="M16 2C16 0.895431 15.1046 0 14 0H0V14C0 15.1046 0.895431 16 2 16H14C15.1046 16 16 15.1046 16 14V2Z" fill="#1F7C85"/>
<path d="M3.76439 14.9219C3.70844 14.9219 3.65249 14.9115 3.59884 14.8908C3.43733 14.8277 3.33177 14.6786 3.33177 14.5136L3.38542 11.4284H2.66439C1.78935 11.4284 1.07812 10.7573 1.07812 9.93149V2.58288C1.07812 1.75711 1.78935 1.08594 2.66439 1.08594H13.3356C14.2107 1.08594 14.9219 1.75711 14.9219 2.58288V9.93149C14.9219 10.7573 14.2107 11.4284 13.3356 11.4284H6.88154L4.07068 14.8021C3.98762 14.8805 3.87687 14.9219 3.76439 14.9219ZM2.66439 1.90245C2.26696 1.90245 1.94336 2.20783 1.94336 2.58288V9.93149C1.94336 10.3065 2.26696 10.6119 2.66439 10.6119H3.81803C4.05684 10.6119 4.25065 10.7948 4.25065 11.0202L4.19701 13.5278L6.39643 10.7311C6.47776 10.6544 6.58736 10.6114 6.70215 10.6114H13.3356C13.733 10.6114 14.0566 10.306 14.0566 9.93094V2.58288C14.0566 2.20783 13.733 1.90245 13.3356 1.90245H2.66439Z" fill="white" stroke="white" stroke-width="0.15"/>
<path d="M13 6.5C13 6.22383 12.8929 6 12.7608 6L8.23923 6C8.10719 6 8 6.22383 8 6.5C8 6.77617 8.10719 7 8.23923 7L12.7608 7C12.8929 7 13 6.77617 13 6.5Z" fill="white"/>
<path d="M13 4.5C13 4.22383 12.8286 4 12.6172 4L5.38278 4C5.1715 4 5 4.22383 5 4.5C5 4.77617 5.1715 5 5.38278 5L12.6172 5C12.8286 5 13 4.77617 13 4.5Z" fill="white"/>
</svg>
