<?xml version="1.0" encoding="utf-8"?>
<!-- Generator: Adobe Illustrator 22.1.0, SVG Export Plug-In . SVG Version: 6.00 Build 0)  -->
<svg version="1.1" id="Layer_1" xmlns="http://www.w3.org/2000/svg" xmlns:xlink="http://www.w3.org/1999/xlink" x="0px" y="0px"
	 viewBox="0 0 65.6 133.1" style="enable-background:new 0 0 65.6 133.1;" xml:space="preserve">
<style type="text/css">
	.st0{fill:#07B6F5;}
	.st1{fill:#0773EB;}
</style>
<g>
	<path class="st0" d="M11.4,132.7c7.6-5,15.2-10,22.5-15.3c3.6-2.7,7.3-5.3,10.8-8.1c1.8-1.4,3.5-2.8,5.2-4.2c1.7-1.4,3.4-2.9,5-4.4
		c1.6-1.5,3.1-3,4.3-4.7c1.2-1.6,2-3.2,2.2-4.9c0.1-1.8-0.2-3.6-1.1-5.4c-0.9-1.8-2.1-3.5-3.5-5.1c-1.4-1.6-3.1-3-4.8-4.5
		c-1.7-1.5-3.4-2.8-5.3-4c-3.7-2.4-7.8-4.2-12.2-5.6c4.6,0.2,9.1,1.4,13.4,3.4c2.1,1,4.2,2.3,6.1,3.5c1.9,1.3,3.8,2.7,5.6,4.4
		c1.8,1.7,3.4,3.5,4.6,5.8c1.3,2.2,2,5,1.9,7.7c-0.1,1.4-0.4,2.8-1,4.1c-0.5,1.3-1.2,2.4-1.9,3.4c-1.5,2.1-3.2,3.8-4.9,5.4
		c-3.5,3.2-7.1,6-10.8,8.7c-3.7,2.7-7.5,5.3-11.5,7.6C28.2,125.4,19.9,129.5,11.4,132.7z"/>
</g>
<g>
	<path class="st0" d="M55.3-0.4c-7.6,5-15.2,10-22.5,15.3c-3.6,2.7-7.3,5.3-10.8,8.1c-1.8,1.4-3.5,2.8-5.2,4.2
		c-1.7,1.4-3.4,2.9-5,4.4c-1.6,1.5-3.1,3-4.3,4.7c-1.2,1.6-2,3.2-2.2,4.9c-0.1,1.8,0.2,3.6,1.1,5.4c0.9,1.8,2.1,3.5,3.5,5.1
		c1.4,1.6,3.1,3,4.8,4.5c1.7,1.5,3.4,2.8,5.3,4c3.7,2.4,7.8,4.2,12.2,5.6c-4.6-0.2-9.1-1.4-13.4-3.4c-2.1-1-4.2-2.3-6.1-3.5
		c-1.9-1.3-3.8-2.7-5.6-4.4c-1.8-1.7-3.4-3.5-4.6-5.8c-1.3-2.2-2-5-1.9-7.7c0.1-1.4,0.4-2.8,1-4.1c0.5-1.3,1.2-2.4,1.9-3.4
		c1.5-2.1,3.2-3.8,4.9-5.4c3.5-3.2,7.1-6,10.8-8.7c3.7-2.7,7.5-5.3,11.5-7.6C38.5,6.9,46.7,2.7,55.3-0.4z"/>
</g>
<g>
	<path class="st1" d="M19.1,110.2c-2.4-1.6-4.6-3.5-6.6-5.7c-2-2.1-3.8-4.5-5.1-7.3c-1.3-2.7-1.8-6-1.2-9.1c0.6-3.1,2.4-5.9,4.3-8.2
		c0.5-0.6,1-1.1,1.5-1.7c0.5-0.5,1-1.1,1.6-1.6c1.1-1.1,2.3-2.1,3.5-2.9c2.5-1.8,5.1-3.2,7.8-4.5c2.6-1.3,5.5-2.6,8.3-3.4
		c2.8-0.9,5.4-1.8,8.1-2.8c2.7-1,5.4-2.1,8-3.2c1.3-0.5,2.6-1.1,3.7-1.7c0.6-0.3,1.1-0.6,1.4-0.9c0.4-0.4,0.9-0.8,1.3-1.3
		c3.3-3.6,4.8-9.2,3.2-13.7c-0.7-2.3-2.2-4.1-4.2-5.7c-2-1.6-4.5-2.9-7-4.2c-2.5-1.3-5.1-2.5-7.7-3.8l-7.8-3.4l3.1-2.1
		c-0.1,5.8-0.2,11.6-0.4,17.5c-0.2,5.8-0.3,11.6-0.5,17.5l-0.3,8.7l-0.4,8.7c-0.3,5.8-0.6,11.6-1,17.5C32.2,87,32,81.2,31.8,75.4
		l-0.3-8.7l-0.2-8.7c-0.2-5.8-0.3-11.6-0.3-17.5c-0.1-5.8-0.2-11.6-0.2-17.5l0-3.4l3.1,1.3l8.2,3.4c2.6,1.2,5.3,2.4,7.9,3.7
		c2.6,1.3,5.3,2.7,7.9,4.7c1.3,1,2.5,2.1,3.5,3.5c1,1.4,1.9,2.9,2.4,4.5c1.1,3.2,1.1,6.7,0.3,9.9c-0.8,3.2-2.4,6.2-4.6,8.6
		c-0.6,0.6-1.1,1.1-1.8,1.8c-0.8,0.6-1.5,1-2.3,1.4c-1.4,0.7-2.8,1.3-4.2,1.8c-2.8,1-5.4,2-8.2,3c-2.8,1-5.6,1.9-8.4,2.7
		c-2.8,0.8-5.2,1.7-7.9,2.9c-2.6,1.1-5.1,2.3-7.4,3.9c-1.1,0.8-2.2,1.6-3.3,2.5c-0.5,0.4-1,0.9-1.5,1.4c-0.5,0.5-1,1-1.5,1.5
		c-1.9,2-3.5,4.2-4.2,6.7c-0.7,2.5-0.5,5.3,0.4,7.9c0.9,2.6,2.4,5,4.2,7.3C15,106.1,16.9,108.3,19.1,110.2z"/>
</g>
</svg>
