<?xml version="1.0" encoding="utf-8"?>
<!-- Generator: Adobe Illustrator 22.1.0, SVG Export Plug-In . SVG Version: 6.00 Build 0)  -->
<svg version="1.1" id="Layer_1" xmlns="http://www.w3.org/2000/svg" xmlns:xlink="http://www.w3.org/1999/xlink" x="0px" y="0px"
	 viewBox="0 0 65.6 133.1" style="enable-background:new 0 0 65.6 133.1;" xml:space="preserve">
<style type="text/css">
	.st0{fill:#140073;}
	.st1{fill:#FFC200;}
</style>
<g>
	<g>
		<path class="st0" d="M10.7,132.4c7.9-4.5,15.6-9.2,23-14.5c3.7-2.6,7.3-5.3,10.9-8.1c3.5-2.8,7-5.7,10.1-8.8
			c1.6-1.6,3-3.2,4.2-4.9c1.2-1.7,1.8-3.4,1.9-5.1c0-1.7-0.4-3.5-1.3-5.2c-0.9-1.7-2.1-3.3-3.5-4.9c-1.4-1.6-3-3-4.7-4.4
			c-1.7-1.5-3.4-2.8-5.2-4c-3.6-2.4-7.7-4.3-12-5.8l0.1-0.5c4.6,0.1,9.3,1.2,13.6,3.2c2.2,0.9,4.2,2.3,6.2,3.5
			c1.9,1.3,3.8,2.8,5.6,4.5c1.7,1.7,3.4,3.7,4.6,6c1.2,2.3,1.9,5.1,1.6,7.9c-0.1,1.4-0.6,2.8-1.1,4c-0.6,1.2-1.3,2.3-2.1,3.3
			c-1.5,2-3.3,3.6-5,5.2c-3.5,3.1-7.2,5.8-10.9,8.5c-3.7,2.7-7.5,5.2-11.4,7.6c-7.8,4.7-15.9,9.1-24.2,12.8L10.7,132.4z"/>
	</g>
	<g>
		<path class="st0" d="M54.8-0.3c-7.9,4.5-15.6,9.2-23,14.5c-3.7,2.6-7.3,5.3-10.9,8.1c-3.5,2.8-7,5.7-10.1,8.8
			c-1.6,1.6-3,3.2-4.2,4.9c-1.2,1.7-1.8,3.4-1.9,5.1c0,1.7,0.4,3.5,1.3,5.2C7,48,8.3,49.6,9.7,51.1c1.4,1.6,3,3,4.7,4.4
			c1.7,1.5,3.4,2.8,5.2,4c3.6,2.4,7.7,4.3,12,5.8l-0.1,0.5c-4.6-0.1-9.3-1.2-13.6-3.2c-2.2-0.9-4.2-2.3-6.2-3.5
			c-1.9-1.3-3.8-2.8-5.6-4.5c-1.7-1.7-3.4-3.7-4.6-6c-1.2-2.3-1.9-5.1-1.6-7.9c0.1-1.4,0.6-2.8,1.1-4c0.6-1.2,1.3-2.3,2.1-3.3
			c1.5-2,3.3-3.6,5-5.2c3.5-3.1,7.2-5.8,10.9-8.5c3.7-2.7,7.5-5.2,11.4-7.6C38.3,7.3,46.3,3,54.6-0.7L54.8-0.3z"/>
	</g>
</g>
<g>
	<path class="st1" d="M17.7,111c-2.4-1.7-4.5-3.7-6.4-5.9c-1.9-2.2-3.7-4.6-4.8-7.4c-1.2-2.7-1.6-5.9-1-8.9c0.6-3,2.3-5.7,4.3-7.9
		c1-1.1,2-2.1,3-3.2c1.1-1,2.2-2,3.4-2.9c2.4-1.8,5.1-3.1,7.7-4.4c1.3-0.6,2.6-1.3,4-1.8c1.4-0.6,2.8-1,4.2-1.5
		c2.8-0.9,5.4-1.8,8.1-2.9c2.7-1,5.4-2.1,8-3.2c1.3-0.5,2.6-1.1,3.8-1.7c0.6-0.3,1.1-0.6,1.5-1c0.4-0.4,0.9-0.9,1.3-1.3
		c3.4-3.9,4.9-9.6,3.2-14.3c-1.5-4.8-6.5-7.4-11.6-9.9c-2.6-1.2-5.2-2.4-7.8-3.6L30.8,26l3.5-2.4c0,5.8-0.1,11.6-0.2,17.5
		c-0.2,5.8-0.3,11.6-0.5,17.5c-0.2,5.8-0.5,11.6-0.8,17.5c-0.3,5.8-0.7,11.6-1.2,17.5l-0.5,0c-0.4-5.8-0.8-11.6-1-17.5
		c-0.3-5.8-0.5-11.6-0.6-17.5c-0.2-5.8-0.2-11.6-0.3-17.5c0-5.8-0.1-11.6,0-17.5l0.1-3.9l3.4,1.5c2.7,1.2,5.4,2.4,8.1,3.6
		c2.6,1.3,5.2,2.6,7.8,3.9c2.6,1.4,5.2,2.8,7.7,4.8c1.2,1,2.4,2.1,3.4,3.5c1,1.4,1.7,2.9,2.2,4.4c1,3.2,1,6.5,0.2,9.6
		c-0.8,3.1-2.4,6-4.6,8.3c-0.5,0.6-1.1,1.1-1.8,1.7c-0.7,0.6-1.4,1-2.1,1.3c-1.4,0.7-2.8,1.2-4.1,1.7c-2.7,1-5.4,2-8.2,3
		c-2.7,1-5.6,1.8-8.3,2.7c-2.8,0.8-5.3,1.8-8,3c-2.6,1.2-5.2,2.4-7.5,3.9c-1.2,0.8-2.3,1.6-3.3,2.6c-1,0.9-2.1,2-3,3
		c-1.9,2-3.5,4.3-4.2,7c-0.7,2.6-0.4,5.5,0.6,8.1c1,2.6,2.6,5,4.4,7.2c1.8,2.3,3.8,4.3,6,6.1L17.7,111z"/>
</g>
</svg>
