<?xml version="1.0" encoding="utf-8"?>
<!-- Generator: Adobe Illustrator 22.1.0, SVG Export Plug-In . SVG Version: 6.00 Build 0)  -->
<svg version="1.1" id="Layer_1" xmlns="http://www.w3.org/2000/svg" xmlns:xlink="http://www.w3.org/1999/xlink" x="0px" y="0px"
	 viewBox="0 0 316 125.2" style="enable-background:new 0 0 316 125.2;" xml:space="preserve">
<style type="text/css">
	.st0{fill:#F78B1E;}
	.st1{fill:#4D4D4D;}
</style>
<g>
	<g>
		<path class="st0" d="M3.1,86.7h13.1c9.3,0,16.1,2.2,16.1,9c0,6.5-6.9,9.4-15.9,9.4h-6v10.7H3.1V86.7z M15.9,101
			c6.2,0,9.2-1.7,9.2-5.3c0-3.6-3.2-4.8-9.4-4.8h-5.2V101H15.9z"/>
		<path class="st0" d="M40.2,86.7h7.4v11.7h16.9V86.7h7.4v29.1h-7.4v-12.9H47.6v12.9h-7.4C40.2,115.8,40.2,86.7,40.2,86.7z"/>
		<path class="st0" d="M89.4,105L76.8,86.7h7.9l4.5,7.4c1.2,2.2,2.4,4.2,3.7,6.4h0.3c1.3-2.2,2.6-4.2,3.8-6.4l4.5-7.4h7.7L96.8,105
			v10.8h-7.4V105z"/>
		<path class="st0" d="M111.5,112.1l4.3-3.5c3,2,7,3.3,10.9,3.3c4.7,0,7.3-1.5,7.3-3.8c0-2.4-2.7-3.2-6.5-4.3l-5.7-1.7
			c-4.1-1.2-8.4-3.5-8.4-7.7c0-4.6,5.9-8.2,14-8.2c4.9,0,9.6,1.4,12.8,3.7l-3.8,3.3c-2.7-1.6-5.5-2.5-9.1-2.5c-4,0-6.5,1.3-6.5,3.4
			c0,2.3,3.2,3.1,6.6,4.1l5.6,1.6c5,1.4,8.4,3.6,8.4,7.9c0,4.7-5.6,8.7-15,8.7C120.9,116.4,115.4,114.8,111.5,112.1z"/>
		<path class="st0" d="M149.1,86.7h7.4v29.1h-7.4V86.7z"/>
		<path class="st0" d="M164.9,101.2c0-9.4,7.5-15,18.4-15s18.4,5.6,18.4,15s-7.5,15.2-18.4,15.2
			C172.4,116.4,164.9,110.6,164.9,101.2z M194,101.2c0-6.5-4.2-10.5-10.8-10.5s-10.8,4-10.8,10.5s4.2,10.7,10.8,10.7
			S194,107.7,194,101.2z"/>
		<path class="st0" d="M207.2,112.1l4.3-3.5c3,2,7,3.3,10.9,3.3c4.7,0,7.3-1.5,7.3-3.8c0-2.4-2.7-3.2-6.5-4.3l-5.7-1.7
			c-4.1-1.2-8.4-3.5-8.4-7.7c0-4.6,5.9-8.2,14-8.2c4.9,0,9.6,1.4,12.8,3.7l-3.8,3.3c-2.7-1.6-5.5-2.5-9.1-2.5c-4,0-6.5,1.3-6.5,3.4
			c0,2.3,3.2,3.1,6.6,4.1l5.6,1.6c5,1.4,8.4,3.6,8.4,7.9c0,4.7-5.6,8.7-15,8.7C216.6,116.4,211.1,114.8,207.2,112.1z"/>
		<path class="st0" d="M244.8,86.7h25.1V91h-17.7v7.5h15v4.3h-15v8.6h18.3v4.3h-25.7V86.7z"/>
		<path class="st0" d="M276.8,101.2c0-9.4,7.5-15,18.4-15s18.4,5.6,18.4,15s-7.5,15.2-18.4,15.2
			C284.4,116.4,276.8,110.6,276.8,101.2z M306,101.2c0-6.5-4.2-10.5-10.8-10.5c-6.6,0-10.8,4-10.8,10.5c0,6.8,4.2,11,10.8,11
			C301.8,112.1,306,108,306,101.2z M291.5,115.7l7.6-0.5c1.6,2.9,5.8,4.2,10.2,4.2c1.8,0,3.3-0.2,4.5-0.5l1.4,3.8
			c-1.4,0.4-3.8,0.8-6.7,0.8C299.9,123.6,294,120.2,291.5,115.7z"/>
	</g>
</g>
<g>
	<g>
		<circle class="st1" cx="306" cy="76.6" r="3.6"/>
	</g>
	<g>
		<circle class="st1" cx="293.2" cy="76.6" r="3.6"/>
	</g>
</g>
<circle class="st1" cx="279" cy="76.6" r="3.6"/>
<circle class="st1" cx="264.8" cy="76.6" r="3.6"/>
<circle class="st1" cx="250.6" cy="76.6" r="3.6"/>
<circle class="st1" cx="236.4" cy="76.6" r="3.6"/>
<circle class="st1" cx="222.2" cy="76.6" r="3.6"/>
<circle class="st1" cx="208" cy="76.6" r="3.6"/>
<circle class="st1" cx="193.8" cy="76.6" r="3.6"/>
<circle class="st1" cx="179.6" cy="76.6" r="3.6"/>
<circle class="st1" cx="165.4" cy="76.6" r="3.6"/>
<circle class="st0" cx="151.3" cy="76.6" r="3.6"/>
<circle class="st1" cx="137.1" cy="76.6" r="3.6"/>
<circle class="st1" cx="122.9" cy="76.6" r="3.6"/>
<circle class="st1" cx="108.7" cy="76.6" r="3.6"/>
<circle class="st1" cx="94.5" cy="76.6" r="3.6"/>
<circle class="st1" cx="80.3" cy="76.6" r="3.6"/>
<circle class="st1" cx="66.1" cy="76.6" r="3.6"/>
<circle class="st1" cx="51.9" cy="76.6" r="3.6"/>
<circle class="st1" cx="37.7" cy="76.6" r="3.6"/>
<circle class="st1" cx="23.5" cy="76.6" r="3.6"/>
<circle class="st1" cx="9.4" cy="76.6" r="3.6"/>
<g>
	<circle class="st1" cx="306" cy="62.4" r="3.6"/>
</g>
<g>
	<circle class="st1" cx="293.2" cy="62.4" r="3.6"/>
</g>
<circle class="st1" cx="279" cy="62.4" r="3.6"/>
<circle class="st1" cx="264.8" cy="62.4" r="3.6"/>
<circle class="st1" cx="250.6" cy="62.4" r="3.6"/>
<circle class="st1" cx="236.4" cy="62.4" r="3.6"/>
<circle class="st1" cx="222.2" cy="62.4" r="3.6"/>
<circle class="st1" cx="208" cy="62.4" r="3.6"/>
<circle class="st1" cx="193.8" cy="62.4" r="3.6"/>
<circle class="st1" cx="179.6" cy="62.4" r="3.6"/>
<circle class="st1" cx="165.4" cy="62.4" r="3.6"/>
<circle class="st1" cx="137.1" cy="62.4" r="3.6"/>
<circle class="st1" cx="122.9" cy="62.4" r="3.6"/>
<circle class="st1" cx="108.7" cy="62.4" r="3.6"/>
<circle class="st1" cx="94.5" cy="62.4" r="3.6"/>
<circle class="st1" cx="80.3" cy="62.4" r="3.6"/>
<circle class="st1" cx="66.1" cy="62.4" r="3.6"/>
<circle class="st1" cx="37.7" cy="62.4" r="3.6"/>
<circle class="st1" cx="23.5" cy="62.4" r="3.6"/>
<circle class="st1" cx="9.4" cy="62.4" r="3.6"/>
<g>
	<circle class="st1" cx="306" cy="48.2" r="3.6"/>
</g>
<circle class="st1" cx="279" cy="48.2" r="3.6"/>
<circle class="st1" cx="250.6" cy="48.2" r="3.6"/>
<circle class="st1" cx="222.2" cy="48.2" r="3.6"/>
<circle class="st1" cx="179.6" cy="48.2" r="3.6"/>
<circle class="st1" cx="165.4" cy="48.2" r="3.6"/>
<circle class="st1" cx="122.9" cy="48.2" r="3.6"/>
<circle class="st1" cx="108.7" cy="48.2" r="3.6"/>
<circle class="st1" cx="80.3" cy="48.2" r="3.6"/>
<circle class="st1" cx="66.1" cy="48.2" r="3.6"/>
<circle class="st1" cx="23.5" cy="48.2" r="3.6"/>
<circle class="st1" cx="9.4" cy="48.2" r="3.6"/>
<circle class="st1" cx="279" cy="34" r="3.6"/>
<circle class="st1" cx="165.4" cy="34" r="3.6"/>
<circle class="st1" cx="108.7" cy="34" r="3.6"/>
<circle class="st1" cx="80.3" cy="34" r="3.6"/>
<circle class="st1" cx="23.5" cy="34" r="3.6"/>
<circle class="st1" cx="108.7" cy="19.8" r="3.6"/>
<circle class="st1" cx="80.3" cy="19.8" r="3.6"/>
<circle class="st1" cx="108.7" cy="5.6" r="3.6"/>
</svg>
