<?xml version="1.0" encoding="utf-8"?>
<!-- Generator: Adobe Illustrator 22.1.0, SVG Export Plug-In . SVG Version: 6.00 Build 0)  -->
<svg version="1.1" id="Layer_1" xmlns="http://www.w3.org/2000/svg" xmlns:xlink="http://www.w3.org/1999/xlink" x="0px" y="0px"
	 viewBox="0 0 503 312.8" style="enable-background:new 0 0 503 312.8;" xml:space="preserve">
<style type="text/css">
	.st0{fill:#2E3192;stroke:#2E3192;}
	.st1{fill:#2E3192;stroke:#2E3192;stroke-miterlimit:10;}
	.st2{fill:#808080;}
	.st3{fill:#2E3192;}
</style>
<title>logo_9_corrected</title>
<path class="st0" d="M97.3,174.8h14.3c2.6,0,5.3,0.2,7.9,0.6c1.9,0.3,3.7,1.3,5,2.8c2.7,3,2.4,7.6-0.6,10.2
	c-0.4,0.3-0.8,0.6-1.2,0.9c-2.5,1.5-6,2.2-10.7,2.2h-9.6v11.1h-5.1V174.8z M102.4,188.2h9.7c3.3,0,5.6-0.4,7-1.3
	c2.1-1.3,2.7-4.1,1.4-6.2c-0.1-0.2-0.3-0.4-0.4-0.6c-0.8-0.9-1.8-1.4-2.9-1.6c-1.7-0.3-3.4-0.4-5.1-0.3h-9.6V188.2z"/>
<path class="st0" d="M162,202.7h-5.1v-13.1H137v13.1h-5.1v-27.9h5.1v11.4h19.9v-11.4h5.1V202.7z"/>
<path class="st0" d="M201.7,174.8l-15,16.1v11.8h-5.1v-11.8l-15-16.1h6.2l11.4,12.8l11.4-12.8L201.7,174.8z"/>
<path class="st0" d="M219.7,203.1c-5.4,0-9.4-0.9-12.1-2.6c-2.5-1.4-4-4-4.2-6.8h4.9c0.3,2.1,1.6,3.8,3.6,4.6c2.4,1.1,5,1.6,7.7,1.5
	c2.3,0.1,4.7-0.3,6.9-1.3c1.7-0.8,2.6-2,2.6-3.5c0-1.5-0.9-2.7-2.7-3.4c-3-1-6.1-1.7-9.3-2.1c-4.4-0.7-7.5-1.6-9.4-2.8
	c-1.8-1-2.9-2.8-2.9-4.8c0-2.3,1.2-4.1,3.7-5.6s5.8-2.2,9.9-2.2c4.3,0,7.8,0.7,10.4,2.2c2.4,1.1,4,3.5,4.2,6.2H228
	c-0.5-3.4-3.7-5.1-9.5-5.1c-2.2-0.1-4.5,0.3-6.6,1.2c-1.6,0.8-2.3,1.8-2.3,3.1c0,1.2,0.8,2.2,1.9,2.6c2.3,0.8,4.6,1.4,7,1.7
	c3.4,0.5,6.1,1.1,8.1,1.6c1.9,0.5,3.6,1.3,5.1,2.5c1.4,1.1,2.2,2.7,2.1,4.5c0,2.4-1.3,4.4-3.9,6
	C227.3,202.4,223.9,203.2,219.7,203.1z"/>
<path class="st1" d="M244.6,202.7h-5.1v-27.9h5.1V202.7z"/>
<path class="st0" d="M268.3,174.3c5.3,0,9.7,1.3,13.2,3.9c5.8,4.5,6.8,12.8,2.3,18.6c-0.7,0.9-1.4,1.6-2.3,2.3
	c-3.4,2.6-7.8,4-13.2,4c-5.4,0-9.8-1.3-13.2-4c-5.8-4.4-6.9-12.7-2.4-18.5c0.7-0.9,1.5-1.7,2.4-2.4
	C258.6,175.6,263,174.3,268.3,174.3z M268.3,200c3.4,0.1,6.7-0.9,9.4-3c4.6-4.2,4.9-11.3,0.7-15.9c-0.2-0.3-0.5-0.5-0.7-0.7
	c-2.7-2.1-6-3.1-9.3-3c-3.4-0.1-6.8,0.9-9.5,3c-4.6,4.1-4.9,11.2-0.8,15.8c0.3,0.3,0.5,0.6,0.8,0.8C261.6,199,264.9,200.1,268.3,200
	L268.3,200z"/>
<path class="st0" d="M307.8,203.1c-5.4,0-9.4-0.9-12.1-2.6c-2.5-1.4-4-4-4.2-6.8h4.9c0.3,2.1,1.6,3.8,3.6,4.6c2.4,1.1,5,1.6,7.7,1.5
	c2.3,0.1,4.7-0.3,6.9-1.3c1.7-0.9,2.6-2,2.6-3.5c0-1.5-0.9-2.6-2.7-3.3c-3-1-6.1-1.7-9.3-2.1c-4.4-0.7-7.5-1.6-9.4-2.8
	c-1.8-1-2.9-2.8-2.9-4.8c0-2.3,1.2-4.1,3.7-5.6c2.5-1.4,5.8-2.2,9.9-2.2c4.3,0,7.8,0.7,10.4,2.2c2.4,1.1,4,3.5,4.2,6.2h-4.9
	c-0.5-3.4-3.7-5.1-9.5-5.1c-2.2-0.1-4.5,0.3-6.5,1.2c-1.6,0.8-2.3,1.8-2.3,3.1c0,1.2,0.7,2.2,1.9,2.6c2.3,0.8,4.6,1.4,7,1.7
	c3.4,0.5,6.1,1.1,8.1,1.6c1.9,0.5,3.6,1.3,5.1,2.5c1.4,1.1,2.2,2.7,2.1,4.5c0,2.4-1.3,4.4-3.9,6C315.4,202.4,312,203.2,307.8,203.1z
	"/>
<path class="st0" d="M357.5,202.7H329v-27.9h27.6v3.3h-22.6v8.5h21.1v3.3h-21.1v9.4h23.5L357.5,202.7z"/>
<path class="st0" d="M399.2,202.3l-3,2.6l-6.3-3.6c-3,1.3-6.3,1.9-9.6,1.9c-5.4,0-9.8-1.3-13.2-4c-5.8-4.5-6.8-12.8-2.4-18.5
	c0.7-0.9,1.5-1.7,2.4-2.4c3.4-2.6,7.8-3.9,13.2-3.9c5.4,0,9.8,1.3,13.1,4c3.3,2.4,5.2,6.3,5.1,10.5c0.1,4.1-1.8,7.9-5,10.4
	L399.2,202.3z M389.8,196.9c2.4-2,3.7-5.1,3.5-8.2c0.2-3.2-1.2-6.3-3.7-8.3c-2.7-2.1-6-3.1-9.3-3c-3.4-0.1-6.8,0.9-9.5,3
	c-4.6,4.1-4.9,11.2-0.8,15.8c0.3,0.3,0.5,0.6,0.8,0.8c2.7,2.1,6,3.1,9.4,3c2,0,3.9-0.3,5.8-0.9l-3.8-2.2l3-2.6L389.8,196.9z"/>
<circle class="st2" cx="396.2" cy="162.5" r="3.6"/>
<circle class="st2" cx="383.4" cy="162.5" r="3.6"/>
<circle class="st2" cx="369.2" cy="162.5" r="3.6"/>
<circle class="st2" cx="355" cy="162.5" r="3.6"/>
<circle class="st2" cx="340.8" cy="162.5" r="3.6"/>
<circle class="st2" cx="326.6" cy="162.5" r="3.6"/>
<circle class="st2" cx="312.4" cy="162.5" r="3.6"/>
<circle class="st2" cx="298.2" cy="162.5" r="3.6"/>
<circle class="st2" cx="284" cy="162.5" r="3.6"/>
<circle class="st2" cx="269.9" cy="162.5" r="3.6"/>
<circle class="st2" cx="255.7" cy="162.5" r="3.6"/>
<circle class="st3" cx="241.5" cy="162.5" r="3.6"/>
<circle class="st2" cx="227.3" cy="162.5" r="3.6"/>
<circle class="st2" cx="213.1" cy="162.5" r="3.6"/>
<circle class="st2" cx="198.9" cy="162.5" r="3.6"/>
<circle class="st2" cx="184.7" cy="162.5" r="3.6"/>
<circle class="st2" cx="170.5" cy="162.5" r="3.6"/>
<circle class="st2" cx="156.3" cy="162.5" r="3.6"/>
<circle class="st2" cx="142.1" cy="162.5" r="3.6"/>
<circle class="st2" cx="127.9" cy="162.5" r="3.6"/>
<circle class="st2" cx="113.8" cy="162.5" r="3.6"/>
<circle class="st2" cx="99.6" cy="162.5" r="3.6"/>
<circle class="st2" cx="396.2" cy="148.3" r="3.6"/>
<circle class="st2" cx="383.4" cy="148.3" r="3.6"/>
<circle class="st2" cx="369.2" cy="148.3" r="3.6"/>
<circle class="st2" cx="355" cy="148.3" r="3.6"/>
<circle class="st2" cx="340.8" cy="148.3" r="3.6"/>
<circle class="st2" cx="326.6" cy="148.3" r="3.6"/>
<circle class="st2" cx="312.4" cy="148.3" r="3.6"/>
<circle class="st2" cx="298.2" cy="148.3" r="3.6"/>
<circle class="st2" cx="284" cy="148.3" r="3.6"/>
<circle class="st2" cx="269.9" cy="148.3" r="3.6"/>
<circle class="st2" cx="255.7" cy="148.3" r="3.6"/>
<circle class="st2" cx="227.3" cy="148.3" r="3.6"/>
<circle class="st2" cx="213.1" cy="148.3" r="3.6"/>
<circle class="st2" cx="198.9" cy="148.3" r="3.6"/>
<circle class="st2" cx="184.7" cy="148.3" r="3.6"/>
<circle class="st2" cx="170.5" cy="148.3" r="3.6"/>
<circle class="st2" cx="156.3" cy="148.3" r="3.6"/>
<circle class="st2" cx="127.9" cy="148.3" r="3.6"/>
<circle class="st2" cx="113.8" cy="148.3" r="3.6"/>
<circle class="st2" cx="99.6" cy="148.3" r="3.6"/>
<circle class="st2" cx="396.2" cy="134.1" r="3.6"/>
<circle class="st2" cx="369.2" cy="134.1" r="3.6"/>
<circle class="st2" cx="340.8" cy="134.1" r="3.6"/>
<circle class="st2" cx="312.4" cy="134.1" r="3.6"/>
<circle class="st2" cx="269.9" cy="134.1" r="3.6"/>
<circle class="st2" cx="255.7" cy="134.1" r="3.6"/>
<circle class="st2" cx="213.1" cy="134.1" r="3.6"/>
<circle class="st2" cx="198.9" cy="134.1" r="3.6"/>
<circle class="st2" cx="170.5" cy="134.1" r="3.6"/>
<circle class="st2" cx="156.3" cy="134.1" r="3.6"/>
<circle class="st2" cx="113.8" cy="134.1" r="3.6"/>
<circle class="st2" cx="99.6" cy="134.1" r="3.6"/>
<circle class="st2" cx="369.2" cy="119.9" r="3.6"/>
<circle class="st2" cx="255.7" cy="119.9" r="3.6"/>
<circle class="st2" cx="198.9" cy="119.9" r="3.6"/>
<circle class="st2" cx="170.5" cy="119.9" r="3.6"/>
<circle class="st2" cx="113.8" cy="119.9" r="3.6"/>
<circle class="st2" cx="198.9" cy="105.8" r="3.6"/>
<circle class="st2" cx="170.5" cy="105.8" r="3.6"/>
<circle class="st2" cx="198.9" cy="91.6" r="3.6"/>
</svg>
