<?xml version="1.0" encoding="utf-8"?>
<!-- Generator: Adobe Illustrator 22.1.0, SVG Export Plug-In . SVG Version: 6.00 Build 0)  -->
<svg version="1.1" id="Layer_1" xmlns="http://www.w3.org/2000/svg" xmlns:xlink="http://www.w3.org/1999/xlink" x="0px" y="0px"
	 viewBox="0 0 61.5 95.7" style="enable-background:new 0 0 61.5 95.7;" xml:space="preserve">
<style type="text/css">
	.st0{fill:#3376C9;}
	.st1{fill:#002468;}
	.st2{fill:#1FB7FF;}
	.st3{fill:#1F45FF;}
</style>
<path class="st0" d="M60.6,77.5c0,10-13.3,18-29.6,18c-14.2,0-26-6.1-28.9-14.2c-0.7-1.9,0.7-3.8,2.7-3.8h10.1
	c1.2,0,2.2,0.8,2.7,1.9C18.9,83.2,24.4,86,31,86c7.7,0,13.9-3.8,13.9-8.5c0-4.7-6.2-8.5-13.9-8.5c-7.7,0-14.8-1.8-20.1-4.8
	C5,61,1.3,56.3,1.3,51.1c0-10,13.3-18,29.6-18c14.3,0,26.2,6.2,29,14.4c0.6,1.8-0.8,3.6-2.7,3.6H47.2c-1.2,0-2.2-0.8-2.7-1.9
	c-1.4-3.7-6.9-6.5-13.5-6.5c-7.7,0-13.9,3.8-13.9,8.4c0,4.6,6.8,6.9,13.6,8.4c0.2,0,0.3,0.1,0.5,0.1c8.3,0.3,14.6,1.8,19.8,4.8
	C56.9,67.6,60.6,72.3,60.6,77.5z"/>
<path class="st1" d="M31.2-0.1c-0.1,0-0.2,0-0.3,0H2.3c-1.8,0-3.2,1.8-3.2,4v4.3c0,2.2,1.4,4,3.2,4h6.1v58.4c0,2.2,1.4,4,3.2,4h10
	c1.8,0,3.2-1.8,3.2-4V44.9c1.9,0.3,3.9,0.5,5.9,0.5c16.5,0,29.9-10.2,29.9-22.7C60.6,10.2,47.5,0.1,31.2-0.1z M30.7,32.9
	c-2.1,0-4.1-0.4-5.9-1V12.3h6.1c7.4,0.1,13.4,4.7,13.4,10.3C44.3,28.3,38.2,32.9,30.7,32.9z"/>
<path class="st2" d="M60.7,77.5c0,10-13.3,18-29.6,18c-15,0-27.4-6.8-29.3-15.6c-0.3-1.2,0.7-2.4,2-2.4h11.8c0.9,0,1.7,0.5,1.9,1.4
	c1.1,4,6.8,7.1,13.7,7.1c7.7,0,13.9-3.8,13.9-8.5c0-4.7-6.2-8.5-13.9-8.5c-7.7,0-14.8-1.8-20.1-4.8c-5.9-3.3-9.5-8-9.5-13.2
	c0-10,13.3-18,29.6-18c15,0,27.4,6.8,29.3,15.6c0.3,1.2-0.7,2.4-2,2.4H46.7c-0.9,0-1.7-0.5-1.9-1.4c-1.1-4-6.8-7.1-13.7-7.1
	c-7.7,0-13.9,3.8-13.9,8.4c0,4.6,6.8,7,13.7,8.4c0.1,0,0.2,0,0.3,0c8.3,0.3,14.7,1.8,19.9,4.8C57,67.6,60.7,72.3,60.7,77.5z"/>
<path class="st3" d="M31.3-0.1c-0.1,0-0.2,0-0.3,0H2.4c-1.8,0-3.2,1.8-3.2,4v4.3c0,2.2,1.4,4,3.2,4h6.1v58.4c0,2.2,1.4,4,3.2,4h10
	c1.8,0,3.2-1.8,3.2-4V44.9c1.9,0.3,3.9,0.5,5.9,0.5c16.5,0,29.9-10.2,29.9-22.7C60.7,10.2,47.6,0.1,31.3-0.1z M30.8,32.9
	c-2.1,0-4.1-0.4-5.9-1V12.3H31c7.4,0.1,13.4,4.7,13.4,10.3C44.4,28.3,38.3,32.9,30.8,32.9z"/>
</svg>
