<?xml version="1.0" encoding="UTF-8" standalone="no"?><svg xmlns="http://www.w3.org/2000/svg" xmlns:xlink="http://www.w3.org/1999/xlink" fill="#ff914d" height="100.5" preserveAspectRatio="xMidYMid meet" version="1" viewBox="3.0 -0.5 94.0 100.5" width="94" zoomAndPan="magnify"><g id="change1_1"><path d="M90.775,20.695L55.774,1.48c-3.615-1.984-7.933-1.984-11.549,0l-35,19.215C5.385,22.803,3,26.834,3,31.214v37.572 c0,4.381,2.385,8.411,6.225,10.519l35,19.214c1.808,0.993,3.792,1.489,5.775,1.489s3.967-0.496,5.775-1.489l34.999-19.214 C94.614,77.197,97,73.167,97,68.786V31.214C97,26.834,94.614,22.803,90.775,20.695z M7,68.786v-0.151l16.878-12.209 c1.683-1.155,3.651-1.767,5.693-1.767h17.811c1.179,0,2.287,0.46,3.119,1.296c0.832,0.835,1.288,1.944,1.283,3.121l-0.001,0.2 c-0.01,2.417-1.984,4.383-4.402,4.383H35.804c-1.104,0-2,0.896-2,2s0.896,2,2,2h14.01c1.492,0,2.951-0.416,4.219-1.203 l18.188-11.289c0.012-0.007,0.022-0.014,0.034-0.021c0.767-0.372,1.628-0.486,2.501-0.33c1.634,0.292,2.948,1.648,3.196,3.298 c0.218,1.45-0.322,2.848-1.448,3.753L49.403,79.988c-1.646,1.093-3.561,1.671-5.537,1.671H22.014c-0.055,0-0.106,0.012-0.16,0.016 L11.15,75.799C8.59,74.394,7,71.707,7,68.786z M50,35.634c1.104,0,2-0.896,2-2c0-6.628,5.393-12.021,12.021-12.021 c6.629,0,12.021,5.393,12.021,12.021c0,3.298-1.318,6.378-3.713,8.673c-0.172,0.164-0.309,0.354-0.41,0.559L55.78,59.005 c-0.014-2.217-0.878-4.3-2.445-5.873c-1.589-1.595-3.702-2.473-5.953-2.473H35.874l-7.936-7.935 c-0.096-0.189-0.224-0.365-0.38-0.52c-2.321-2.28-3.6-5.324-3.6-8.57c0-6.628,5.393-12.021,12.021-12.021 C42.607,21.614,48,27.006,48,33.634C48,34.739,48.896,35.634,50,35.634z M93,68.786c0,2.921-1.59,5.607-4.15,7.013l-35,19.214 c-2.41,1.322-5.289,1.322-7.699,0l-17.039-9.354h14.754c2.767,0,5.446-0.809,7.755-2.343l27.172-18.17 c0.04-0.026,0.079-0.055,0.117-0.084c2.281-1.776,3.431-4.667,2.997-7.545c-0.499-3.319-3.15-6.05-6.446-6.64 c-1.825-0.325-3.642-0.044-5.247,0.819c-0.095,0.051-0.184,0.109-0.268,0.174l-3.627,2.251l8.957-8.957 c0.159-0.159,0.288-0.341,0.383-0.537c2.833-2.988,4.383-6.862,4.383-10.995c0-8.833-7.188-16.021-16.021-16.021 c-6.03,0-11.287,3.351-14.021,8.286c-2.733-4.935-7.991-8.286-14.021-8.286c-8.834,0-16.021,7.187-16.021,16.021 c0,4.072,1.507,7.903,4.261,10.873c0.095,0.196,0.224,0.378,0.384,0.538l5.614,5.614h-0.647c-2.854,0-5.605,0.854-7.998,2.498 L7,63.698V31.214c0-2.92,1.59-5.607,4.15-7.013l35-19.214C47.355,4.326,48.678,3.995,50,3.995s2.645,0.331,3.85,0.993l35,19.214 C91.41,25.607,93,28.294,93,31.214V68.786z"/></g></svg>