<svg width="16" height="16" viewBox="0 0 16 16" fill="none" xmlns="http://www.w3.org/2000/svg">
<path d="M16 2C16 0.895431 15.1046 0 14 0H0V14C0 15.1046 0.895431 16 2 16H14C15.1046 16 16 15.1046 16 14V2Z" fill="#1F7C85"/>
<path d="M14.5 5.99996C14.2238 5.99996 14 6.22382 14 6.49997L14 13.4999C14 13.776 13.7762 13.9999 13.5 13.9999H2.50004C2.22388 13.9999 2.00003 13.776 2.00003 13.4999L1.99999 2.49995C1.99999 2.22379 2.22385 1.99994 2.5 1.99994H5.49999C5.77614 1.99994 6 1.77608 6 1.49993C6 1.22378 5.77614 0.999956 5.49999 0.999956H2.5C1.67157 0.999956 1 1.67152 1 2.49995L1.00003 13.4999C1.00003 14.3283 1.67161 14.9999 2.50004 14.9999H13.5C14.3285 14.9999 15 14.3283 15 13.4999L15 6.49994C15 6.22382 14.7761 5.99996 14.5 5.99996Z" fill="white"/>
<path d="M1.50001 5.99996C1.77616 5.99996 2.00002 6.22382 2.00002 6.49997L1.99999 13.4999C1.99999 13.776 2.22385 13.9999 2.5 13.9999H13.5C13.7761 13.9999 14 13.776 14 13.4999L14 2.49995C14 2.22379 13.7761 1.99994 13.5 1.99994H10.5C10.2239 1.99994 10 1.77608 10 1.49993C10 1.22378 10.2239 0.999956 10.5 0.999956H13.5C14.3284 0.999956 15 1.67152 15 2.49995L15 13.4999C15 14.3283 14.3284 14.9999 13.5 14.9999H2.49997C1.67154 14.9999 0.999966 14.3283 0.999966 13.4999L1 6.49994C1 6.22382 1.22386 5.99996 1.50001 5.99996Z" fill="white"/>
<path d="M6.68333 11.8333L6.68333 11.8335C6.68416 12.5602 7.2731 13.1492 7.99983 13.15H8.00017C8.7269 13.1492 9.31584 12.5602 9.31667 11.8335V11.8333V9.31667H11.8333C12.5605 9.31667 13.15 8.72718 13.15 8C13.15 7.27282 12.5605 6.68333 11.8333 6.68333H9.31667V4.16667C9.31667 3.43949 8.72718 2.85 8 2.85C7.27282 2.85 6.68333 3.43949 6.68333 4.16667V6.68333H4.16667C3.43949 6.68333 2.85 7.27282 2.85 8C2.85 8.72718 3.43949 9.31667 4.16667 9.31667H6.68333V11.8333ZM3.48333 8C3.48333 7.62261 3.78928 7.31667 4.16667 7.31667H7C7.17488 7.31667 7.31667 7.17488 7.31667 7V4.16667C7.31667 3.78928 7.62261 3.48333 8 3.48333C8.37739 3.48333 8.68333 3.78928 8.68333 4.16667V7C8.68333 7.17488 8.82512 7.31667 9 7.31667H11.8333C12.2107 7.31667 12.5167 7.62261 12.5167 8C12.5167 8.37739 12.2107 8.68333 11.8333 8.68333H9C8.82512 8.68333 8.68333 8.82512 8.68333 9V11.8333C8.68333 12.2107 8.37739 12.5167 8 12.5167C7.62261 12.5167 7.31667 12.2107 7.31667 11.8333V9C7.31667 8.82512 7.17488 8.68333 7 8.68333H4.16667C3.78928 8.68333 3.48333 8.37739 3.48333 8Z" fill="white" stroke="white" stroke-width="0.3"/>
</svg>
