<?xml version="1.0" encoding="iso-8859-1"?>
<!-- Generator: Adobe Illustrator 19.0.0, SVG Export Plug-In . SVG Version: 6.00 Build 0)  -->
<svg xmlns="http://www.w3.org/2000/svg" xmlns:xlink="http://www.w3.org/1999/xlink" version="1.1" id="Layer_1" x="0px" y="0px" viewBox="0 0 512.01 512.01" style="enable-background:new 0 0 512.01 512.01;" xml:space="preserve" width="512" height="512">
<path d="M423.601,160.709c3.673,2.906,8.05,4.316,12.396,4.316c5.904,0,11.75-2.603,15.698-7.592  c6.853-8.663,5.386-21.241-3.276-28.094l-158-125c-8.663-6.852-21.24-5.386-28.094,3.276c-6.853,8.663-5.386,21.241,3.276,28.094  l10.704,8.468L18.7,370.474C4.264,388.855-2.151,411.758,0.638,434.963s14.448,43.935,32.828,58.371  c15.996,12.563,35.038,18.653,53.954,18.652c25.883-0.002,51.524-11.404,68.761-33.234l49.287-60.037  c7.009-8.537,5.77-21.14-2.768-28.148c-8.538-7.008-21.141-5.769-28.148,2.768l-49.413,60.19c-0.091,0.111-0.182,0.224-0.271,0.337  c-16.177,20.597-46.097,24.195-66.695,8.016c-9.978-7.837-16.307-19.091-17.821-31.688c-1.514-12.598,1.968-25.03,9.774-34.969  l124.893-158.196h121.225L234.3,315.647c-6.836,8.676-5.344,21.251,3.333,28.087c3.668,2.89,8.031,4.291,12.364,4.291  c5.917,0,11.777-2.615,15.723-7.624l147.835-187.64L423.601,160.709z M327.759,197.024h-121.16L307.675,68.996l74.51,58.948  L327.759,197.024z M483.596,297.492c-12.903-19.146-25.645-34.575-26.181-35.223c-3.8-4.589-9.447-7.245-15.405-7.245  s-11.605,2.656-15.405,7.245c-0.536,0.647-13.277,16.076-26.181,35.223c-25.469,37.792-28.415,55.5-28.415,65.532  c0,38.598,31.402,70,70,70s70-31.402,70-70C512.01,352.992,509.065,335.284,483.596,297.492z M442.01,393.024  c-16.542,0-30-13.458-30-30c0-1.135,0.601-11.984,21.413-42.923c2.908-4.322,5.832-8.468,8.588-12.263  c2.697,3.715,5.558,7.77,8.414,12.008c20.979,31.13,21.585,42.036,21.585,43.178C472.01,379.566,458.552,393.024,442.01,393.024z"/>















</svg>
