<svg width="16" height="16" viewBox="0 0 16 16" fill="none" xmlns="http://www.w3.org/2000/svg">
<g clip-path="url(#clip0)">
<path d="M16 2C16 0.895431 15.1046 0 14 0H0V14C0 15.1046 0.895431 16 2 16H14C15.1046 16 16 15.1046 16 14V2Z" fill="#1F7C85"/>
<path d="M11.44 8.57539L13.2012 11.2691C13.4526 11.7609 13.5053 12.3464 13.3461 12.8843L13.3453 12.8871C13.2458 13.2304 13.0734 13.5385 12.8418 13.7854C12.2181 14.4438 11.2733 14.5889 10.5047 14.1583L10.5041 14.1579C9.53693 13.6181 9.14644 12.3337 9.66925 11.2846C9.67106 11.2815 9.67254 11.2789 9.67362 11.277L11.44 8.57539ZM13.1824 11.2288C13.1819 11.2277 13.1818 11.2274 13.1822 11.2284L13.1824 11.2288Z" fill="#1F7C85" stroke="white"/>
<path d="M11.7634 3.74988L11.2638 3.46246C11.2533 3.4564 11.2456 3.44964 11.2359 3.4463L7.43283 1.25063C7.43283 1.25063 7.00026 1.00088 6.75049 1.43301C6.50028 1.8659 6.93328 2.1159 6.93328 2.1159L7.15127 2.24061V2.24061C7.27137 2.30932 7.31244 2.46275 7.24273 2.58226L6.90702 3.15787L2.32768 11.0935C2.32768 11.0935 2.32768 11.0935 2.3257 11.097L1.90879 11.8191C1.33533 12.8204 1.64272 14.0349 2.60468 14.6279C3.59364 15.2376 4.79495 14.8155 5.37069 13.8224L10.7054 4.58241C10.7744 4.46283 10.9273 4.42186 11.0469 4.4909V4.4909L11.2634 4.6159C11.2634 4.6159 11.6971 4.86526 11.9466 4.43301C12.1962 4.00076 11.7634 3.74988 11.7634 3.74988ZM4.46415 13.3931C4.01167 14.1768 3.09813 13.7591 3.09813 13.7591C3.09813 13.7591 2.27244 13.1892 2.7321 12.3931C3.19176 11.5969 5.29069 8.00391 5.29069 8.00391L7.60559 8.00391L4.46415 13.3931ZM8.31982 6.74784C8.23083 6.90376 8.06509 7 7.88557 7L6.70065 7C6.3152 7 6.07471 6.58226 6.26826 6.24893L8.23254 2.86602L9.96459 3.86602L8.31982 6.74784Z" fill="white"/>
</g>
<defs>
<clipPath id="clip0">
<rect width="16" height="16" rx="2" transform="matrix(-1 0 0 1 16 0)" fill="white"/>
</clipPath>
</defs>
</svg>
