<?xml version="1.0" encoding="utf-8"?>
<!-- Generator: Adobe Illustrator 22.1.0, SVG Export Plug-In . SVG Version: 6.00 Build 0)  -->
<svg version="1.1" id="Layer_1" xmlns="http://www.w3.org/2000/svg" xmlns:xlink="http://www.w3.org/1999/xlink" x="0px" y="0px"
	 viewBox="0 0 16 16" style="enable-background:new 0 0 16 16;" xml:space="preserve">
<style type="text/css">
	.st0{fill:#1F7C85;}
	.st1{fill:#FFFFFF;}
</style>
<path class="st0" d="M16,2c0-1.1-0.9-2-2-2H0v14c0,1.1,0.9,2,2,2h12c1.1,0,2-0.9,2-2V2z"/>
<path class="st1" d="M7,8.4"/>
<path class="st1" d="M11.6,5.6v7c0,0.3-0.3,0.6-0.6,0.6H5.7c-0.3,0-0.6-0.3-0.6-0.6v-9c0-0.3,0.3-0.6,0.6-0.6h3.6
	c0.3,0,0.6,0.3,0.6,0.6v7.2c0,0.3-0.3,0.6-0.6,0.6H7.5c-0.3,0-0.6-0.3-0.6-0.6V5.6c0-0.2,0.1-0.3,0.3-0.3h0.4c0.2,0,0.3,0.1,0.3,0.3
	v4.8h1V4.6c0-0.3-0.3-0.6-0.6-0.6H6.7c-0.3,0-0.6,0.3-0.6,0.6v7c0,0.3,0.3,0.6,0.6,0.6H10c0.3,0,0.6-0.3,0.6-0.6v-6
	c0-0.2,0.1-0.3,0.3-0.3h0.4C11.5,5.3,11.6,5.4,11.6,5.6z"/>
</svg>
