<svg width="16" height="16" viewBox="0 0 16 16" fill="none" xmlns="http://www.w3.org/2000/svg">
<path d="M16 2C16 0.895431 15.1046 0 14 0H0V14C0 15.1046 0.895431 16 2 16H14C15.1046 16 16 15.1046 16 14V2Z" fill="#1F7C85"/>
<path d="M14.5 5.99995C14.2238 5.99995 14 6.2238 14 6.49995L14 13.4999C14 13.776 13.7762 13.9999 13.5 13.9999H2.50004C2.22388 13.9999 2.00003 13.776 2.00003 13.4999L2 6.49274L1.99999 2.49993C1.99999 2.22378 2.22385 1.99992 2.5 1.99992H5.49999C5.77614 1.99992 6 1.77607 6 1.49992C6 1.22377 5.77614 0.999939 5.49999 0.999939H2.5C1.67157 0.999939 1 1.67151 1 2.49993L1.00003 13.4999C1.00003 14.3283 1.67161 14.9999 2.50004 14.9999H13.5C14.3285 14.9999 15 14.3283 15 13.4999L15 6.49992C15 6.2238 14.7761 5.99995 14.5 5.99995Z" fill="white"/>
<path d="M1.50005 5.99995C1.77379 5.99995 1.99615 6.21992 2 6.49274C2.00004 6.49514 2.00006 6.49754 2.00006 6.49995L2.00003 13.4999C2.00003 13.776 2.22388 13.9999 2.50004 13.9999H13.5C13.7762 13.9999 14 13.776 14 13.4999L14 2.49993C14 2.22378 13.7762 1.99992 13.5 1.99992H10.5C10.2239 1.99992 10 1.77607 10 1.49992C10 1.22377 10.2239 0.999939 10.5 0.999939H13.5C14.3285 0.999939 15 1.67151 15 2.49993V13.4999C15 14.3283 14.3285 14.9999 13.5 14.9999H2.50004C1.67161 14.9999 1.00003 14.3283 1.00003 13.4999L1.00003 6.49992C1.00003 6.2238 1.22389 5.99995 1.50005 5.99995Z" fill="white"/>
<path d="M14 11.4999C14 11.7761 13.7762 11.9999 13.5 11.9999H2.50004C2.22388 11.9999 2.00003 11.7761 2.00003 11.4999H1.00003C1.00003 12.3283 1.67161 12.9999 2.50004 12.9999H13.5C14.3285 12.9999 15 12.3283 15 11.4999H14Z" fill="white"/>
<path d="M14 9.49992C14 9.77607 13.7762 9.99993 13.5 9.99993H2.50004C2.22388 9.99993 2.00003 9.77607 2.00003 9.49992H1.00003C1.00007 10.3283 1.67163 10.9999 2.50004 10.9999H13.5C14.3285 10.9999 15 10.3283 15 9.49992H14Z" fill="white"/>
<path d="M2 6.49274L1.99999 2.49993C1.99999 2.22378 2.22385 1.99992 2.5 1.99992H5.49999C5.77614 1.99992 6 1.77607 6 1.49992C6 1.22377 5.77614 0.999939 5.49999 0.999939H2.5C1.67157 0.999939 1 1.67151 1 2.49993L1.00003 9.49992L1.00003 6.49992C1.00003 6.2238 1.22389 5.99995 1.50005 5.99995C1.77379 5.99995 1.99615 6.21992 2 6.49274Z" fill="white"/>
<path d="M6.91667 8.06667L6.91667 8.06684C6.91734 8.66476 7.4019 9.14932 7.99983 9.15H8.00017C8.5981 9.14932 9.08266 8.66476 9.08333 8.06684V8.06667V6.08333H11.0667C11.665 6.08333 12.15 5.59831 12.15 5C12.15 4.40169 11.665 3.91667 11.0667 3.91667H9.08333V1.93333C9.08333 1.33502 8.59831 0.85 8 0.85C7.40169 0.85 6.91667 1.33502 6.91667 1.93333V3.91667H4.93333C4.33502 3.91667 3.85 4.40169 3.85 5C3.85 5.59831 4.33502 6.08333 4.93333 6.08333H6.91667V8.06667ZM4.41667 5C4.41667 4.71466 4.64799 4.48333 4.93333 4.48333H7.2C7.35648 4.48333 7.48333 4.35648 7.48333 4.2V1.93333C7.48333 1.64799 7.71466 1.41667 8 1.41667C8.28534 1.41667 8.51667 1.64799 8.51667 1.93333V4.2C8.51667 4.35648 8.64352 4.48333 8.8 4.48333H11.0667C11.352 4.48333 11.5833 4.71466 11.5833 5C11.5833 5.28534 11.352 5.51667 11.0667 5.51667H8.8C8.64352 5.51667 8.51667 5.64352 8.51667 5.8V8.06667C8.51667 8.35201 8.28534 8.58333 8 8.58333C7.71466 8.58333 7.48333 8.35201 7.48333 8.06667V5.8C7.48333 5.64352 7.35648 5.51667 7.2 5.51667H4.93333C4.64799 5.51667 4.41667 5.28534 4.41667 5Z" fill="white" stroke="white" stroke-width="0.3"/>
</svg>
