<svg width="16" height="16" viewBox="0 0 16 16" fill="none" xmlns="http://www.w3.org/2000/svg">
<g clip-path="url(#clip0)">
<path d="M2 -8.74228e-08C0.895431 -3.91405e-08 3.91405e-08 0.895431 8.74228e-08 2L6.99382e-07 16L14 16C15.1046 16 16 15.1046 16 14L16 2C16 0.89543 15.1046 -6.60242e-07 14 -6.11959e-07L2 -8.74228e-08Z" fill="#1F7C85"/>
<circle r="1" transform="matrix(-4.37114e-08 1 1 4.37114e-08 9.91626 2)" fill="white" stroke="white"/>
<circle cx="13.9722" cy="14" r="1" transform="rotate(-90 13.9722 14)" fill="white" stroke="white"/>
<circle r="1.25" transform="matrix(-4.37114e-08 1 1 4.37114e-08 9.91602 6)" fill="#1F7C85" stroke="white" stroke-width="0.5"/>
<circle cx="13.9722" cy="10" r="1" transform="rotate(-90 13.9722 10)" fill="white" stroke="white"/>
<circle r="1" transform="matrix(-4.37114e-08 1 1 4.37114e-08 9.91602 10)" fill="white" stroke="white"/>
<circle cx="13.9722" cy="6" r="1" transform="rotate(-90 13.9722 6)" fill="white" stroke="white"/>
<circle r="1" transform="matrix(-4.37114e-08 1 1 4.37114e-08 9.91602 14)" fill="white" stroke="white"/>
<circle cx="13.9722" cy="2" r="1" transform="rotate(-90 13.9722 2)" fill="white" stroke="white"/>
<path fill-rule="evenodd" clip-rule="evenodd" d="M4.8639 8.25735L3.13246 9.91391C3.03045 10.0115 2.89381 10.0274 2.77956 9.95492C2.66532 9.88248 2.59315 9.73413 2.59315 9.57182L2.59315 8.01108L-1 8.01108C-1 8.01108 -0.999987 7.8194 -0.999987 7.58293L-0.999987 4.41706C-0.999987 4.18059 -0.999975 3.98891 -0.999975 3.98891L2.59315 3.98891L2.59315 2.42817C2.59315 2.26586 2.66536 2.11755 2.77956 2.04506C2.89381 1.97258 3.03045 1.98846 3.13246 2.08608L4.8639 3.74263L5.4308 4.28502L6.86572 5.65792C6.95026 5.7388 7 5.86549 7 6.00001C7 6.13454 6.95029 6.26123 6.86572 6.34211L5.4308 7.71497L4.8639 8.25735ZM2.92994 4.84521C3.11596 4.84521 3.26674 4.65352 3.26674 4.41706L3.26674 3.28623L6.10314 5.99997L3.26674 8.71372L3.26674 7.58293C3.26674 7.34646 3.11596 7.15478 2.92994 7.15478L-0.326393 7.15478L-0.326393 4.84521L2.92994 4.84521Z" fill="white"/>
</g>
<defs>
<clipPath id="clip0">
<rect width="16" height="16" rx="2" transform="matrix(-1 0 0 1 16 0)" fill="white"/>
</clipPath>
</defs>
</svg>
