<svg width="16" height="16" viewBox="0 0 16 16" fill="none" xmlns="http://www.w3.org/2000/svg">
<g clip-path="url(#clip0)">
<path d="M16 2C16 0.895431 15.1046 0 14 0H0V14C0 15.1046 0.895431 16 2 16H14C15.1046 16 16 15.1046 16 14V2Z" fill="#1F7C85"/>
<path d="M16.5 -0.5H-1.5L7.91036 3.73466C8.26922 3.89615 8.5 4.25308 8.5 4.64659V16.5H16.5V-0.5Z" fill="#1F7C85" stroke="white"/>
<path d="M0.339683 7.65957H1.57959L0.594445 6.65532C0.458569 6.51916 0.458569 6.3149 0.594445 6.17872C0.730322 6.04254 0.934144 6.04255 1.07004 6.17872L2.54775 7.65957H2.66877C3.22106 7.65957 3.66877 7.21186 3.66877 6.65957V6.50213L2.20805 5.0383C2.07217 4.90214 2.07217 4.69788 2.20805 4.5617C2.34393 4.42552 2.54775 4.42554 2.68364 4.5617L3.66877 5.54894V4.34042C3.66877 4.15319 3.82164 4 4.00847 4C4.1953 4 4.34817 4.15319 4.34817 4.34042V5.54894L5.33332 4.5617C5.46919 4.42554 5.67302 4.42554 5.80891 4.5617C5.9448 4.69787 5.94478 4.90212 5.80891 5.0383L4.34819 6.50213V6.65957C4.34819 7.21186 4.7959 7.65957 5.34819 7.65957H5.46921L6.94692 6.17872C7.0828 6.04255 7.28662 6.04255 7.42251 6.17872C7.55841 6.31488 7.55839 6.51914 7.42251 6.65532L6.42038 7.65957H7.6603C7.84713 7.65957 8 7.81276 8 7.99999C8 8.18722 7.84713 8.34041 7.6603 8.34041H6.45436L7.42251 9.31063C7.55839 9.44679 7.55839 9.65105 7.42251 9.78723C7.35457 9.85532 7.26965 9.88936 7.18473 9.88936C7.09981 9.88936 7.01487 9.85532 6.94694 9.78723L5.50319 8.34041H5.3482C4.79592 8.34041 4.3482 8.78813 4.3482 9.34041V9.48084L5.80891 10.9447C5.94478 11.0809 5.94478 11.2851 5.80891 11.4213C5.67303 11.5575 5.46921 11.5575 5.33332 11.4213L4.34817 10.434V11.6596C4.34817 11.8468 4.1953 12 4.00847 12C3.82164 12 3.66877 11.8468 3.66877 11.6766V10.434L2.68363 11.4213C2.61568 11.4894 2.53076 11.5234 2.44584 11.5234C2.36092 11.5234 2.27598 11.4894 2.20805 11.4213C2.07217 11.2851 2.07217 11.0809 2.20805 10.9447L3.66879 9.48086V9.34043C3.66879 8.78814 3.22107 8.34043 2.66879 8.34043H2.5138L1.07005 9.78724C1.00211 9.85533 0.917185 9.88937 0.832264 9.88937C0.747344 9.88937 0.662407 9.85533 0.594477 9.80427C0.4586 9.66811 0.4586 9.46385 0.594477 9.32767L1.57962 8.34043H0.356689C0.169858 8.34043 0 8.18724 0 8.00001C0 7.81278 0.152851 7.65957 0.339683 7.65957Z" fill="white"/>
<path fill-rule="evenodd" clip-rule="evenodd" d="M13.1309 7.74265L11.6159 6.08609C11.5266 5.98847 11.4071 5.97259 11.3071 6.04508C11.2072 6.11752 11.144 6.26587 11.144 6.42818L11.144 7.98892L8 7.98892C8 7.98892 8.00001 8.1806 8.00001 8.41707L8.00001 11.5829C8.00001 11.8194 8.00002 12.0111 8.00002 12.0111L11.144 12.0111L11.144 13.5718C11.144 13.7341 11.2072 13.8825 11.3071 13.9549C11.4071 14.0274 11.5266 14.0115 11.6159 13.9139L13.1309 12.2574L13.6269 11.715L14.8825 10.3421C14.9565 10.2612 15 10.1345 15 9.99999C15 9.86546 14.9565 9.73877 14.8825 9.65789L13.6269 8.28503L13.1309 7.74265ZM11.4387 11.1548C11.6015 11.1548 11.7334 11.3465 11.7334 11.5829L11.7334 12.7138L14.2153 10L11.7334 7.28628L11.7334 8.41707C11.7334 8.65354 11.6015 8.84522 11.4387 8.84522L8.58941 8.84522L8.58941 11.1548L11.4387 11.1548Z" fill="white"/>
</g>
<defs>
<clipPath id="clip0">
<rect width="16" height="16" rx="2" transform="matrix(-1 0 0 1 16 0)" fill="white"/>
</clipPath>
</defs>
</svg>
