<svg width="16" height="16" viewBox="0 0 16 16" fill="none" xmlns="http://www.w3.org/2000/svg">
<g clip-path="url(#clip0)">
<path d="M0 2C0 0.895431 0.895431 0 2 0H16V14C16 15.1046 15.1046 16 14 16H2C0.895431 16 0 15.1046 0 14V2Z" fill="#1F7C85"/>
<path d="M-0.5 -0.5H17.5L8.08964 3.73466C7.73078 3.89615 7.5 4.25308 7.5 4.64659V16.5H-0.5V-0.5Z" fill="#1F7C85" stroke="white"/>
<path fill-rule="evenodd" clip-rule="evenodd" d="M4.13091 3.74265L2.6159 2.08609C2.52664 1.98847 2.40708 1.97259 2.30712 2.04508C2.20716 2.11752 2.144 2.26587 2.144 2.42818L2.144 3.98892L-1 3.98892C-1 3.98892 -0.999989 4.1806 -0.999989 4.41707L-0.999989 7.58294C-0.999989 7.81941 -0.999978 8.01109 -0.999978 8.01109L2.144 8.01109L2.144 9.57183C2.144 9.73414 2.20719 9.88245 2.30712 9.95494C2.40708 10.0274 2.52664 10.0115 2.6159 9.91392L4.13091 8.25737L4.62695 7.71498L5.8825 6.34208C5.95647 6.2612 6 6.13451 6 5.99999C6 5.86546 5.9565 5.73877 5.8825 5.65789L4.62695 4.28503L4.13091 3.74265ZM2.4387 7.15479C2.60146 7.15479 2.7334 7.34648 2.7334 7.58294L2.7334 8.71377L5.21525 6.00003L2.7334 3.28628L2.7334 4.41707C2.7334 4.65354 2.60146 4.84522 2.4387 4.84522L-0.410594 4.84522L-0.410594 7.15479L2.4387 7.15479Z" fill="white"/>
<path d="M15.6603 7.65957H14.4204L15.4056 6.65532C15.5414 6.51916 15.5414 6.3149 15.4056 6.17872C15.2697 6.04254 15.0659 6.04255 14.93 6.17872L13.4523 7.65957H13.3312C12.7789 7.65957 12.3312 7.21186 12.3312 6.65957V6.50213L13.7919 5.0383C13.9278 4.90214 13.9278 4.69788 13.7919 4.5617C13.6561 4.42552 13.4523 4.42554 13.3164 4.5617L12.3312 5.54894V4.34042C12.3312 4.15319 12.1784 4 11.9915 4C11.8047 4 11.6518 4.15319 11.6518 4.34042V5.54894L10.6667 4.5617C10.5308 4.42554 10.327 4.42554 10.1911 4.5617C10.0552 4.69787 10.0552 4.90212 10.1911 5.0383L11.6518 6.50213V6.65957C11.6518 7.21186 11.2041 7.65957 10.6518 7.65957H10.5308L9.05308 6.17872C8.9172 6.04255 8.71338 6.04255 8.57749 6.17872C8.44159 6.31488 8.44161 6.51914 8.57749 6.65532L9.57962 7.65957H8.3397C8.15287 7.65957 8 7.81276 8 7.99999C8 8.18722 8.15287 8.34041 8.3397 8.34041H9.54564L8.57749 9.31063C8.44161 9.44679 8.44161 9.65105 8.57749 9.78723C8.64543 9.85532 8.73035 9.88936 8.81527 9.88936C8.90019 9.88936 8.98513 9.85532 9.05306 9.78723L10.4968 8.34041H10.6518C11.2041 8.34041 11.6518 8.78813 11.6518 9.34041V9.48084L10.1911 10.9447C10.0552 11.0809 10.0552 11.2851 10.1911 11.4213C10.327 11.5575 10.5308 11.5575 10.6667 11.4213L11.6518 10.434V11.6596C11.6518 11.8468 11.8047 12 11.9915 12C12.1784 12 12.3312 11.8468 12.3312 11.6766V10.434L13.3164 11.4213C13.3843 11.4894 13.4692 11.5234 13.5542 11.5234C13.6391 11.5234 13.724 11.4894 13.7919 11.4213C13.9278 11.2851 13.9278 11.0809 13.7919 10.9447L12.3312 9.48086V9.34043C12.3312 8.78814 12.7789 8.34043 13.3312 8.34043H13.4862L14.9299 9.78724C14.9979 9.85533 15.0828 9.88937 15.1677 9.88937C15.2527 9.88937 15.3376 9.85533 15.4055 9.80427C15.5414 9.66811 15.5414 9.46385 15.4055 9.32767L14.4204 8.34043H15.6433C15.8301 8.34043 16 8.18724 16 8.00001C16 7.81278 15.8471 7.65957 15.6603 7.65957Z" fill="white"/>
</g>
<defs>
<clipPath id="clip0">
<rect width="16" height="16" rx="2" fill="white"/>
</clipPath>
</defs>
</svg>
