<svg width="16" height="16" viewBox="0 0 16 16" fill="none" xmlns="http://www.w3.org/2000/svg">
<path d="M16 2C16 0.895431 15.1046 0 14 0H0V14C0 15.1046 0.895431 16 2 16H14C15.1046 16 16 15.1046 16 14V2Z" fill="#1F7C85"/>
<path d="M10.5029 6.99237C10.2268 6.99237 10.0029 7.12071 10.0029 7.27907V12.6977C10.0029 12.8559 10.2268 12.9844 10.5029 12.9844C10.7791 12.9844 11.0029 12.8559 11.0029 12.6977V7.27907C11.0029 7.12071 10.7791 6.99237 10.5029 6.99237Z" fill="white"/>
<path d="M8 6.99237C7.72383 6.99237 7.5 7.12071 7.5 7.27907V12.6977C7.5 12.8559 7.72383 12.9844 8 12.9844C8.27617 12.9844 8.5 12.8559 8.5 12.6977V7.27907C8.5 7.12071 8.27617 6.99237 8 6.99237Z" fill="white"/>
<path d="M5.49707 6.99237C5.2209 6.99237 4.99707 7.12071 4.99707 7.27907V12.6977C4.99707 12.8559 5.2209 12.9844 5.49707 12.9844C5.77324 12.9844 5.99707 12.8559 5.99707 12.6977V7.27907C5.99707 7.12071 5.77324 6.99237 5.49707 6.99237Z" fill="white"/>
<path d="M3.01718 5.27929V13.1374C3.01718 13.6019 3.22852 14.038 3.59772 14.351C3.96521 14.6648 4.47663 14.843 5.01187 14.8438H11.0936C11.629 14.843 12.1404 14.6648 12.5077 14.351C12.8769 14.038 13.0883 13.6019 13.0883 13.1374V5.27929C13.0883 5.27929 14.8125 5.27929 14.8125 4.09533C14.8125 2.88334 13.0883 2.88334 13.0883 2.88334H11.3935V2.48466C11.3958 2.1494 11.2313 1.82746 10.9368 1.59062C10.6423 1.35391 10.2422 1.22209 9.82616 1.22483H6.31173C5.89569 1.22209 5.49558 1.35391 5.20106 1.59062C4.90654 1.82746 4.74205 2.1494 4.74436 2.48466V2.88334H3.01718C2.25777 2.88347 1.21875 2.88334 1.21875 4.09533C1.21892 5.30732 2.28328 5.12231 3.01718 5.27929ZM11.0936 14.2059H5.01187C4.33517 14.2059 3.80875 13.7374 3.80875 13.1374V5.30732H12.2967V13.1374C12.2967 13.7374 11.7703 14.2059 11.0936 14.2059ZM5.53593 2.48466C5.5333 2.31859 5.61431 2.15874 5.76057 2.04151C5.90667 1.92427 6.10549 1.85986 6.31173 1.86272H9.82616C10.0324 1.85986 10.2312 1.92427 10.3773 2.04151C10.5236 2.15862 10.6046 2.31859 10.602 2.48466V2.88334H5.53593V2.48466ZM2.71798 3.52123H13.4199C13.8134 3.52123 14.1323 3.74408 14.1323 4.09533C14.1323 4.44658 13.8134 4.66943 13.4199 4.66943H2.71798C2.32452 4.66943 2.00557 4.41241 2.00557 4.09533C2.00557 3.77826 2.32452 3.52123 2.71798 3.52123Z" fill="white" stroke="white" stroke-width="0.3"/>
</svg>
