<svg width="16" height="16" viewBox="0 0 16 16" fill="none" xmlns="http://www.w3.org/2000/svg">
<path d="M16 2C16 0.895431 15.1046 0 14 0H0V14C0 15.1046 0.895431 16 2 16H14C15.1046 16 16 15.1046 16 14V2Z" fill="#1F7C85"/>
<path d="M6.5 1L5.92364 1.00088C5.91152 1.00088 5.90143 0.998902 5.89133 1.00088H1.49998C1.49998 1.00088 1.00049 1.00088 1.00024 1.5C1 2 1.49999 2 1.49999 2L1.75113 1.99901V1.99901C1.88949 1.99847 2.00177 2.1108 2.00116 2.24916L1.99823 2.91551L2.00025 12.0777C2.00025 12.0777 2.00025 12.0777 2.00025 12.0816L2.00024 12.9154C2.00428 14.0694 2.8777 14.9674 4.00731 15C5.16861 15.0335 5.99796 14.0674 5.99998 12.9194L5.99999 2.25C5.99999 2.11193 6.11192 2 6.25 2V2H6.5C6.5 2 7.00024 1.99912 7.00024 1.5C7.00024 1.00088 6.5 1 6.5 1ZM5.00024 13.0009C5.00024 13.9058 4.00024 14.0009 4.00024 14.0009C4.00024 14.0009 3.00024 13.9202 3.00024 13.0009C3.00024 12.0816 3.00024 8.00088 3.00024 8.00088H5.00024V13.0009ZM5.00024 6.5C5.00024 6.77614 4.77639 7 4.50024 7H3.50024C3.2241 7 3.00024 6.77614 3.00024 6.5V2L5.00024 2V6.5Z" fill="white"/>
<path d="M15 10C15 12.7614 12.7614 15 10 15C7.23858 15 5 12.7614 5 10C5 7.23858 7.23858 5 10 5C12.7614 5 15 7.23858 15 10Z" fill="#1F7C85"/>
<path d="M15 10C15 12.7614 12.7614 15 10 15C7.23858 15 5 12.7614 5 10C5 7.23858 7.23858 5 10 5C12.7614 5 15 7.23858 15 10Z" fill="#1F7C85"/>
<path d="M15 10C15 12.7614 12.7614 15 10 15C7.23858 15 5 12.7614 5 10C5 7.23858 7.23858 5 10 5C12.7614 5 15 7.23858 15 10Z" stroke="white"/>
<path d="M12.8365 7.95282L10.7894 10.0001L12.8365 12.0473C13.0545 12.2652 13.0545 12.6186 12.8365 12.8365C12.7276 12.9456 12.5847 13.0001 12.4419 13.0001C12.2991 13.0001 12.1561 12.9456 12.0472 12.8365L10 10.7894L7.95276 12.8365C7.84386 12.9456 7.70095 13.0001 7.55814 13.0001C7.41533 13.0001 7.27242 12.9456 7.16352 12.8365C6.94549 12.6186 6.94549 12.2652 7.16352 12.0473L9.21065 10.0001L7.16352 7.95282C6.94549 7.73491 6.94549 7.38149 7.16352 7.16358C7.38143 6.94556 7.73485 6.94556 7.95276 7.16358L10 9.21071L12.0472 7.16358C12.2652 6.94556 12.6186 6.94556 12.8365 7.16358C13.0545 7.38149 13.0545 7.73491 12.8365 7.95282Z" fill="white"/>
</svg>
