<svg width="16" height="16" viewBox="0 0 16 16" fill="none" xmlns="http://www.w3.org/2000/svg">
<path d="M16 2C16 0.895431 15.1046 0 14 0H0V14C0 15.1046 0.895431 16 2 16H14C15.1046 16 16 15.1046 16 14V2Z" fill="#1F7C85"/>
<path d="M14.5 5.99996C14.2238 5.99996 14 6.22382 14 6.49997L14 13.4999C14 13.776 13.7762 13.9999 13.5 13.9999H2.50004C2.22388 13.9999 2.00003 13.776 2.00003 13.4999L1.99999 2.49995C1.99999 2.22379 2.22385 1.99994 2.5 1.99994H9.5C9.77615 1.99994 10 1.77608 10 1.49993C10 1.22378 9.77615 0.999956 9.5 0.999956H2.5C1.67157 0.999956 1 1.67152 1 2.49995L1.00003 13.4999C1.00003 14.3283 1.67161 14.9999 2.50004 14.9999H13.5C14.3285 14.9999 15 14.3283 15 13.4999L15 6.49994C15 6.22382 14.7761 5.99996 14.5 5.99996Z" fill="white"/>
<path d="M14.4395 1.56069C14.0805 1.20163 13.5935 0.999949 13.0858 1.00001C12.5778 0.998543 12.0903 1.20057 11.7323 1.56101L5.14625 8.14643C5.09162 8.20148 5.05039 8.26839 5.02576 8.34193L4.02576 11.3419C3.93849 11.6039 4.08014 11.887 4.34214 11.9743C4.39297 11.9912 4.4462 11.9998 4.49976 11.9999C4.55343 11.9998 4.60678 11.9912 4.65776 11.9744L7.65777 10.9744C7.73145 10.9498 7.79839 10.9084 7.85326 10.8534L14.4393 4.26749C15.1868 3.52008 15.1869 2.30819 14.4395 1.56069ZM13.7323 3.56097L7.23226 10.0609L5.29025 10.7094L5.93675 8.76992L12.4393 2.26999C12.7967 1.91321 13.3758 1.9138 13.7326 2.27128C13.903 2.44205 13.999 2.67323 13.9998 2.91449C14.0004 3.15703 13.9041 3.38977 13.7323 3.56097Z" fill="white"/>
</svg>
