<svg width="16" height="16" viewBox="0 0 16 16" fill="none" xmlns="http://www.w3.org/2000/svg">
<g clip-path="url(#clip0)">
<path d="M16 2C16 0.895431 15.1046 0 14 0H0V14C0 15.1046 0.895431 16 2 16H14C15.1046 16 16 15.1046 16 14V2Z" fill="#1F7C85"/>
<path d="M10.5176 3.10414C10.3994 3.00225 10.2221 2.97192 10.0682 3.02741C9.91423 3.0829 9.81381 3.2133 9.81381 3.35782V5.26705C7.58494 5.34392 6.46882 6.14507 6.29827 6.27827C5.17376 7.07844 4.40599 8.19351 4.12712 9.43129C3.98768 10.0294 3.9627 10.6432 4.05345 11.2483L4.05377 11.2504C4.05458 11.2557 4.05554 11.2611 4.05651 11.2664L4.1442 11.7035C4.1737 11.8507 4.30572 11.9665 4.47514 11.9939C4.64472 12.0213 4.81591 11.9544 4.90457 11.8262L5.16732 11.4465C5.97459 10.2826 6.98062 9.5111 8.15783 9.15343C8.68882 8.9906 9.25139 8.91918 9.81381 8.94294V10.9204C9.81381 11.0652 9.91455 11.1959 10.069 11.2511C10.2236 11.3064 10.4012 11.2754 10.519 11.1727L14.8799 7.37237C15.0406 7.23232 15.04 7.00576 14.8784 6.86641L10.5176 3.10414ZM10.6393 10.0533V8.62106C10.6393 8.44551 10.4923 8.29582 10.2922 8.26786C9.93922 8.21852 8.99767 8.14011 7.88493 8.47821C6.69788 8.83881 5.67089 9.54841 4.8251 10.5911C4.82268 10.2485 4.86008 9.9065 4.93681 9.57036C5.18763 8.4708 5.82468 7.54722 6.83006 6.8256C6.83892 6.81931 6.84731 6.81274 6.85553 6.80575C6.88438 6.78255 7.93248 5.96211 10.2232 5.97693H10.2263C10.4542 5.97693 10.6391 5.81661 10.6393 5.61898V4.21865L14.0039 7.12135L10.6393 10.0533Z" fill="white" stroke="white" stroke-width="0.17"/>
<path d="M8 3V3.5C8 3.5 8 4 7.5 4C7 4 7 3.5 7 3.5V3C7 2.44772 6.55229 2 6 2H-2V12C-2 13.1046 -1.10457 14 0 14H6C6.55229 14 7 13.5523 7 13V12.5C7 12.5 7 12 7.5 12C8 12 8 12.5 8 12.5V13C8 14.1046 7.10457 15 6 15H-1C-2.10457 15 -3 14.1046 -3 13V1H6C7.10457 1 8 1.89543 8 3Z" fill="white"/>
</g>
<defs>
<clipPath id="clip0">
<rect width="16" height="16" rx="2" transform="matrix(-1 0 0 1 16 0)" fill="white"/>
</clipPath>
</defs>
</svg>
