<svg width="16" height="16" viewBox="0 0 16 16" fill="none" xmlns="http://www.w3.org/2000/svg">
<g clip-path="url(#clip0)">
<path d="M16 2C16 0.895431 15.1046 0 14 0H0V14C0 15.1046 0.895431 16 2 16H14C15.1046 16 16 15.1046 16 14V2Z" fill="#1F7C85"/>
<path d="M14.5 5.99996C14.2238 5.99996 14 6.22382 14 6.49997L14 13.4999C14 13.776 13.7762 13.9999 13.5 13.9999H2.50004C2.22388 13.9999 2.00003 13.776 2.00003 13.4999L1.99999 2.49995C1.99999 2.22379 2.22385 1.99994 2.5 1.99994H9.5C9.77615 1.99994 10 1.77608 10 1.49993C10 1.22378 9.77615 0.999956 9.5 0.999956H2.5C1.67157 0.999956 1 1.67152 1 2.49995L1.00003 13.4999C1.00003 14.3283 1.67161 14.9999 2.50004 14.9999H13.5C14.3285 14.9999 15 14.3283 15 13.4999L15 6.49994C15 6.22382 14.7761 5.99996 14.5 5.99996Z" fill="white"/>
<path d="M14.5 5.99993C14.2238 5.99993 14 6.22379 14 6.49994L14 11.4998C14 11.776 13.7762 11.9999 13.5 11.9999H2.50004C2.22388 11.9999 2.00003 11.776 2.00003 11.4998L1.99999 2.49992C1.99999 2.22377 2.22385 1.99991 2.5 1.99991H9.5C9.77615 1.99991 10 1.77605 10 1.4999C10 1.22375 9.77615 0.999927 9.5 0.999927H2.5C1.67157 0.999927 1 1.67149 1 2.49992L1.00003 11.4998C1.00003 12.3283 1.67161 12.9998 2.50004 12.9998H13.5C14.3285 12.9998 15 12.3283 15 11.4998L15 6.49991C15 6.22379 14.7761 5.99993 14.5 5.99993Z" fill="white"/>
<path d="M14.5 6.00001C14.2238 6.00001 14 6.22386 14 6.50001L14 9.49987C14 9.77602 13.7762 9.99988 13.5 9.99988H2.50004C2.22388 9.99988 2.00003 9.77602 2.00003 9.49987L1.99999 2.49999C1.99999 2.22384 2.22385 1.99998 2.5 1.99998H9.5C9.77615 1.99998 10 1.77613 10 1.49998C10 1.22383 9.77615 1 9.5 1H2.5C1.67157 1 1 1.67157 1 2.49999L1.00003 9.49987C1.00003 10.3283 1.67161 10.9999 2.50004 10.9999H13.5C14.3285 10.9999 15 10.3283 15 9.49987L15 6.49998C15 6.22386 14.7761 6.00001 14.5 6.00001Z" fill="white"/>
<path d="M19.3376 -3.33737C18.9133 -3.76171 18.3378 -4.00006 17.7378 -3.99999C17.1373 -4.00172 16.5613 -3.76296 16.1382 -3.33699L8.35466 4.44578C8.29009 4.51084 8.24138 4.58992 8.21226 4.67682L7.03045 8.22225C6.9273 8.53188 7.09471 8.86648 7.40435 8.96959C7.46442 8.9896 7.52733 8.99982 7.59062 8.99989C7.65405 8.99978 7.7171 8.9896 7.77735 8.96977L11.3228 7.78797C11.4099 7.75888 11.489 7.70993 11.5539 7.64497L19.3373 -0.138418C20.2208 -1.02173 20.2209 -2.45396 19.3376 -3.33737ZM18.5018 -0.973394L10.8199 6.70838L8.52484 7.47476L9.28888 5.18263L16.9737 -2.4991C17.3962 -2.92075 18.0805 -2.92005 18.5021 -2.49758C18.7035 -2.29576 18.817 -2.02255 18.8179 -1.73743C18.8186 -1.45078 18.7048 -1.17573 18.5018 -0.973394Z" fill="white"/>
</g>
<defs>
<clipPath id="clip0">
<rect width="16" height="16" rx="2" transform="matrix(-1 0 0 1 16 0)" fill="white"/>
</clipPath>
</defs>
</svg>
