<svg width="16" height="16" viewBox="0 0 16 16" fill="none" xmlns="http://www.w3.org/2000/svg">
<path d="M16 2C16 0.895431 15.1046 0 14 0H0V14C0 15.1046 0.895431 16 2 16H14C15.1046 16 16 15.1046 16 14V2Z" fill="#1F7C85"/>
<path d="M7.66032 7.65957H6.42041L7.40555 6.65532C7.54143 6.51916 7.54143 6.3149 7.40555 6.17872C7.26968 6.04254 7.06586 6.04255 6.92996 6.17872L5.45225 7.65957H5.33123C4.77894 7.65957 4.33123 7.21186 4.33123 6.65957V6.50213L5.79195 5.0383C5.92783 4.90214 5.92783 4.69788 5.79195 4.5617C5.65607 4.42552 5.45225 4.42554 5.31636 4.5617L4.33123 5.54894V4.34042C4.33123 4.15319 4.17836 4 3.99153 4C3.8047 4 3.65183 4.15319 3.65183 4.34042V5.54894L2.66668 4.5617C2.53081 4.42554 2.32698 4.42554 2.19109 4.5617C2.0552 4.69787 2.05522 4.90212 2.19109 5.0383L3.65181 6.50213V6.65957C3.65181 7.21186 3.2041 7.65957 2.65181 7.65957H2.53079L1.05308 6.17872C0.917201 6.04255 0.713379 6.04255 0.577486 6.17872C0.441594 6.31488 0.44161 6.51914 0.577486 6.65532L1.57962 7.65957H0.339699C0.152867 7.65957 0 7.81276 0 7.99999C0 8.18722 0.152867 8.34041 0.339699 8.34041H1.54564L0.577486 9.31063C0.44161 9.44679 0.44161 9.65105 0.577486 9.78723C0.645432 9.85532 0.730353 9.88936 0.815274 9.88936C0.900195 9.88936 0.985131 9.85532 1.05306 9.78723L2.49681 8.34041H2.6518C3.20408 8.34041 3.6518 8.78813 3.6518 9.34041V9.48084L2.19109 10.9447C2.05522 11.0809 2.05522 11.2851 2.19109 11.4213C2.32697 11.5575 2.53079 11.5575 2.66668 11.4213L3.65183 10.434V11.6596C3.65183 11.8468 3.8047 12 3.99153 12C4.17836 12 4.33123 11.8468 4.33123 11.6766V10.434L5.31637 11.4213C5.38432 11.4894 5.46924 11.5234 5.55416 11.5234C5.63908 11.5234 5.72402 11.4894 5.79195 11.4213C5.92783 11.2851 5.92783 11.0809 5.79195 10.9447L4.33121 9.48086V9.34043C4.33121 8.78814 4.77893 8.34043 5.33121 8.34043H5.4862L6.92995 9.78724C6.99789 9.85533 7.08281 9.88937 7.16774 9.88937C7.25266 9.88937 7.33759 9.85533 7.40552 9.80427C7.5414 9.66811 7.5414 9.46385 7.40552 9.32767L6.42038 8.34043H7.64331C7.83014 8.34043 8 8.18724 8 8.00001C8 7.81278 7.84715 7.65957 7.66032 7.65957Z" fill="white"/>
<path fill-rule="evenodd" clip-rule="evenodd" d="M9.86909 9.74265L11.3841 8.08609C11.4734 7.98847 11.5929 7.97259 11.6929 8.04508C11.7928 8.11752 11.856 8.26587 11.856 8.42818L11.856 9.98892L15 9.98892C15 9.98892 15 10.1806 15 10.4171L15 13.5829C15 13.8194 15 14.0111 15 14.0111L11.856 14.0111L11.856 15.5718C11.856 15.7341 11.7928 15.8825 11.6929 15.9549C11.5929 16.0274 11.4734 16.0115 11.3841 15.9139L9.86909 14.2574L9.37305 13.715L8.1175 12.3421C8.04353 12.2612 8 12.1345 8 12C8 11.8655 8.0435 11.7388 8.1175 11.6579L9.37305 10.285L9.86909 9.74265ZM11.5613 13.1548C11.3985 13.1548 11.2666 13.3465 11.2666 13.5829L11.2666 14.7138L8.78475 12L11.2666 9.28628L11.2666 10.4171C11.2666 10.6535 11.3985 10.8452 11.5613 10.8452L14.4106 10.8452L14.4106 13.1548L11.5613 13.1548Z" fill="white"/>
<path fill-rule="evenodd" clip-rule="evenodd" d="M14.1309 1.74265L12.6159 0.0860918C12.5266 -0.0115265 12.4071 -0.0274102 12.3071 0.0450757C12.2072 0.117519 12.144 0.265873 12.144 0.428184L12.144 1.98892L9 1.98892C9 1.98892 9.00001 2.1806 9.00001 2.41707L9.00001 5.58294C9.00001 5.81941 9.00002 6.01109 9.00002 6.01109L12.144 6.01109L12.144 7.57183C12.144 7.73414 12.2072 7.88245 12.3071 7.95494C12.4071 8.02742 12.5266 8.01154 12.6159 7.91392L14.1309 6.25737L14.6269 5.71498L15.8825 4.34208C15.9565 4.2612 16 4.13451 16 3.99999C16 3.86546 15.9565 3.73877 15.8825 3.65789L14.6269 2.28503L14.1309 1.74265ZM12.4387 5.15479C12.6015 5.15479 12.7334 5.34648 12.7334 5.58294L12.7334 6.71377L15.2153 4.00003L12.7334 1.28628L12.7334 2.41707C12.7334 2.65354 12.6015 2.84522 12.4387 2.84522L9.58941 2.84522L9.58941 5.15479L12.4387 5.15479Z" fill="white"/>
</svg>
