<svg width="16" height="16" viewBox="0 0 16 16" fill="none" xmlns="http://www.w3.org/2000/svg">
<g clip-path="url(#clip0)">
<path d="M16 2C16 0.895431 15.1046 0 14 0H0V14C0 15.1046 0.895431 16 2 16H14C15.1046 16 16 15.1046 16 14V2Z" fill="#1F7C85"/>
<path d="M14.3026 10.1175L11.756 8.10821C11.6657 8.03697 11.5508 8 11.4455 8C10.9478 8 4.81769 8 4.55449 8C4.44293 8 4.3293 8.04096 4.24401 8.10821L1.69736 10.1175C1.47544 10.2926 1.43451 10.6182 1.606 10.8448C1.77777 11.0718 2.0967 11.1129 2.31834 10.9381L4.0467 9.57446V14.4815C4.0467 14.7679 4.27405 15 4.55452 15H11.4455C11.726 15 11.9533 14.7679 11.9533 14.4815V9.57446L13.6817 10.9381C13.9031 11.1128 14.2221 11.072 14.394 10.8448C14.5655 10.6182 14.5246 10.2926 14.3026 10.1175ZM7.33982 9.03704H8.66014V10.7518L8.1783 10.5673C8.06488 10.5239 7.93826 10.5227 7.82169 10.5673L7.33982 10.7518V9.03704V9.03704ZM10.9377 13.963H5.06228V9.03704H6.3242V11.5C6.3242 11.6701 6.40588 11.8293 6.54276 11.9262C6.67964 12.023 6.85428 12.0452 7.0103 11.9855L7.99998 11.6066L8.98963 11.9855C9.14327 12.0443 9.31826 12.0245 9.45718 11.9262C9.59408 11.8293 9.67576 11.6701 9.67576 11.5V9.03704H10.9377V13.963V13.963Z" fill="white"/>
<path fill-rule="evenodd" clip-rule="evenodd" d="M5.74265 4.13091L4.08609 2.6159C3.98847 2.52664 3.97259 2.40708 4.04508 2.30712C4.11752 2.20716 4.26587 2.144 4.42818 2.144L5.98892 2.144L5.98892 -1C5.98892 -1 6.1806 -0.999989 6.41707 -0.999989L9.58294 -0.999989C9.81941 -0.999989 10.0111 -0.999978 10.0111 -0.999978L10.0111 2.144L11.5718 2.144C11.7341 2.144 11.8825 2.20719 11.9549 2.30712C12.0274 2.40708 12.0115 2.52664 11.9139 2.6159L10.2574 4.13091L9.71498 4.62695L8.34208 5.8825C8.2612 5.95647 8.13451 6 7.99999 6C7.86546 6 7.73877 5.9565 7.65789 5.8825L6.28503 4.62695L5.74265 4.13091ZM9.15479 2.4387C9.15479 2.60146 9.34648 2.7334 9.58294 2.7334L10.7138 2.7334L8.00003 5.21525L5.28628 2.7334L6.41707 2.7334C6.65354 2.7334 6.84522 2.60146 6.84522 2.4387L6.84522 -0.410594L9.15479 -0.410594L9.15479 2.4387Z" fill="white"/>
</g>
<defs>
<clipPath id="clip0">
<rect width="16" height="16" rx="2" transform="matrix(-1 0 0 1 16 0)" fill="white"/>
</clipPath>
</defs>
</svg>
