<svg width="16" height="16" viewBox="0 0 16 16" fill="none" xmlns="http://www.w3.org/2000/svg">
<path d="M16 2C16 0.895431 15.1046 0 14 0H0V14C0 15.1046 0.895431 16 2 16H14C15.1046 16 16 15.1046 16 14V2Z" fill="#1F7C85"/>
<path d="M2 8.5L1.5 8.5L1.5 9L1.5 12C1.5 12.8284 2.17157 13.5 3 13.5C3.82843 13.5 4.5 12.8284 4.5 12L4.5 9L4.5 8.5L4 8.5L2 8.5Z" fill="#1F7C85" stroke="white"/>
<path d="M7 5.5L6.5 5.5L6.5 6L6.5 12C6.5 12.8284 7.17157 13.5 8 13.5C8.82843 13.5 9.5 12.8284 9.5 12L9.5 6L9.5 5.5L9 5.5L7 5.5Z" fill="#1F7C85" stroke="white"/>
<path d="M12 2.5L11.5 2.5L11.5 3L11.5 12C11.5 12.8284 12.1716 13.5 13 13.5C13.8284 13.5 14.5 12.8284 14.5 12L14.5 3L14.5 2.5L14 2.5L12 2.5Z" fill="#1F7C85" stroke="white"/>
</svg>
