<svg width="16" height="16" viewBox="0 0 16 16" fill="none" xmlns="http://www.w3.org/2000/svg">
<path d="M16 2C16 0.895431 15.1046 0 14 0H0V14C0 15.1046 0.895431 16 2 16H14C15.1046 16 16 15.1046 16 14V2Z" fill="#1F7C85"/>
<path d="M12.75 11H11.25C11.112 11 11 10.888 11 10.75C11 10.612 11.112 10.5 11.25 10.5H12.75C13.1635 10.5 13.5 10.1635 13.5 9.75V6.25C13.5 5.8365 13.1635 5.5 12.75 5.5H3.25C2.8365 5.5 2.5 5.8365 2.5 6.25V9.75C2.5 10.1635 2.8365 10.5 3.25 10.5H4.75C4.888 10.5 5 10.612 5 10.75C5 10.888 4.888 11 4.75 11H3.25C2.5605 11 2 10.439 2 9.75V6.25C2 5.561 2.5605 5 3.25 5H12.75C13.4395 5 14 5.561 14 6.25V9.75C14 10.439 13.4395 11 12.75 11Z" fill="white" stroke="white" stroke-width="0.5"/>
<path d="M9.71429 13H6.28571C6.128 13 6 12.776 6 12.5C6 12.224 6.128 12 6.28571 12H9.71429C9.872 12 10 12.224 10 12.5C10 12.776 9.872 13 9.71429 13Z" fill="white"/>
<path d="M7.66667 11H6.33333C6.14933 11 6 10.776 6 10.5C6 10.224 6.14933 10 6.33333 10H7.66667C7.85067 10 8 10.224 8 10.5C8 10.776 7.85067 11 7.66667 11Z" fill="white"/>
<path d="M11.25 5.5C11.112 5.5 11 5.388 11 5.25V3.25C11 2.8365 10.6635 2.5 10.25 2.5H5.75C5.3365 2.5 5 2.8365 5 3.25V5.25C5 5.388 4.888 5.5 4.75 5.5C4.612 5.5 4.5 5.388 4.5 5.25V3.25C4.5 2.561 5.0605 2 5.75 2H10.25C10.9395 2 11.5 2.561 11.5 3.25V5.25C11.5 5.388 11.388 5.5 11.25 5.5Z" fill="white" stroke="white" stroke-width="0.5"/>
<path d="M10.25 14H5.75C5.0605 14 4.5 13.439 4.5 12.75V8.75C4.5 8.612 4.612 8.5 4.75 8.5H11.25C11.388 8.5 11.5 8.612 11.5 8.75V12.75C11.5 13.439 10.9395 14 10.25 14ZM5 9V12.75C5 13.1635 5.3365 13.5 5.75 13.5H10.25C10.6635 13.5 11 13.1635 11 12.75V9H5Z" fill="white" stroke="white" stroke-width="0.5"/>
</svg>
