<?xml version="1.0" encoding="utf-8"?>
<!-- Generator: Adobe Illustrator 22.1.0, SVG Export Plug-In . SVG Version: 6.00 Build 0)  -->
<svg version="1.1" id="Layer_1" xmlns="http://www.w3.org/2000/svg" xmlns:xlink="http://www.w3.org/1999/xlink" x="0px" y="0px"
	 viewBox="0 0 16 16" style="enable-background:new 0 0 16 16;" xml:space="preserve">
<style type="text/css">
	.st0{fill:#1F7C85;}
	.st1{fill:#FFFFFF;}
</style>
<path class="st0" d="M16,2c0-1.1-0.9-2-2-2H0v14c0,1.1,0.9,2,2,2h12c1.1,0,2-0.9,2-2V2z"/>
<path class="st1" d="M14.5,6C14.2,6,14,6.2,14,6.5v7c0,0.3-0.2,0.5-0.5,0.5h-11C2.2,14,2,13.8,2,13.5l0-11C2,2.2,2.2,2,2.5,2h3
	C5.8,2,6,1.8,6,1.5S5.8,1,5.5,1h-3C1.7,1,1,1.7,1,2.5l0,11C1,14.3,1.7,15,2.5,15h11c0.8,0,1.5-0.7,1.5-1.5v-7C15,6.2,14.8,6,14.5,6z
	"/>
<path class="st1" d="M1.5,6C1.8,6,2,6.2,2,6.5l0,7C2,13.8,2.2,14,2.5,14h11c0.3,0,0.5-0.2,0.5-0.5v-11C14,2.2,13.8,2,13.5,2h-3
	C10.2,2,10,1.8,10,1.5S10.2,1,10.5,1h3C14.3,1,15,1.7,15,2.5v11c0,0.8-0.7,1.5-1.5,1.5h-11C1.7,15,1,14.3,1,13.5l0-7
	C1,6.2,1.2,6,1.5,6z"/>
<path class="st1" d="M12.7,7h-1.2c-0.1-0.2-0.1-0.4-0.2-0.5l0.8-0.8c0.1-0.2,0.1-0.4,0-0.6l-1-1c-0.2-0.2-0.4-0.2-0.6,0L9.7,4.8
	C9.5,4.7,9.3,4.6,9.1,4.6V3.4C9.1,3.2,8.9,3,8.7,3H7.3C7.1,3,6.9,3.2,6.9,3.4v1.2C6.7,4.6,6.5,4.7,6.3,4.8h0L5.5,4
	C5.3,3.9,5.1,3.9,4.9,4l-1,1c-0.1,0.2-0.1,0.4,0,0.5l0.8,0.8C4.7,6.6,4.6,6.8,4.5,7H3.3C3.1,7,2.9,7.1,2.9,7.4v1.4
	c0,0.2,0.2,0.4,0.4,0.4h1.2c0.1,0.2,0.2,0.4,0.3,0.6l-0.9,0.9c-0.1,0.2-0.1,0.4,0,0.6l1,1c0.2,0.2,0.4,0.2,0.6,0l0.9-0.9
	c0.2,0.1,0.3,0.2,0.5,0.2v1.2c0,0.2,0.2,0.4,0.4,0.4h1.4c0.2,0,0.4-0.2,0.4-0.4v-1.2c0.2-0.1,0.4-0.1,0.5-0.2l0.9,0.9
	c0.2,0.1,0.4,0.1,0.5,0l1-1c0.1-0.2,0.1-0.4,0-0.5l-0.9-0.9v0c0.1-0.2,0.2-0.4,0.3-0.6h1.2c0.2,0,0.4-0.2,0.4-0.4V7.4
	C13.1,7.1,12.9,7,12.7,7z M12.6,8.7h-1.5C11,8.8,11,9,10.9,9.2c0,0.1-0.1,0.2-0.1,0.2c-0.1,0.2-0.2,0.3-0.3,0.5l0.4,0.4l0.7,0.7
	l-0.9,0.9L10.1,11l-0.4-0.4c-0.2,0.1-0.3,0.2-0.5,0.3c0,0-0.1,0-0.1,0.1c-0.2,0.1-0.3,0.1-0.5,0.1v1.5H7.4v-1.5
	c-0.2,0-0.3-0.1-0.5-0.1c-0.1,0-0.1,0-0.2-0.1c-0.2-0.1-0.3-0.1-0.5-0.3L5.9,11l-0.7,0.7l-0.9-0.9l1.1-1.1C5.3,9.7,5.2,9.5,5.2,9.4
	c0-0.1-0.1-0.1-0.1-0.2C5,9,5,8.8,4.9,8.7H3.4V7.5h1.5C5,7.3,5,7.1,5.1,7c0-0.1,0-0.1,0.1-0.2c0.1-0.2,0.2-0.3,0.3-0.5L5,6L4.3,5.3
	l0.9-0.9l1,1c0.1-0.1,0.3-0.2,0.5-0.3c0.1,0,0.2-0.1,0.3-0.1C7.1,5,7.2,5,7.4,5V3.5h1.2V5C8.8,5,8.9,5,9.1,5.1
	c0.1,0,0.2,0.1,0.2,0.1c0.2,0.1,0.3,0.1,0.5,0.3l1-1l0.9,0.8l-1,1c0.1,0.1,0.2,0.3,0.3,0.5c0,0.1,0,0.1,0.1,0.2
	C11,7.1,11,7.3,11.1,7.5h1.5V8.7z"/>
<path class="st1" d="M7.9,10.2c-1.2,0-2.1-0.9-2.1-2.1C5.8,6.9,6.8,6,7.9,6S10,6.9,10,8.1C10,9.3,9.1,10.2,7.9,10.2z M7.9,6.5
	C7,6.5,6.3,7.2,6.3,8.1C6.3,9,7,9.7,7.9,9.7S9.5,9,9.5,8.1C9.5,7.2,8.8,6.5,7.9,6.5z"/>
</svg>
