<svg width="16" height="16" viewBox="0 0 16 16" fill="none" xmlns="http://www.w3.org/2000/svg">
<path d="M16 2C16 0.895431 15.1046 0 14 0H0V14C0 15.1046 0.895431 16 2 16H14C15.1046 16 16 15.1046 16 14V2Z" fill="#1F7C85"/>
<path d="M5.925 10.5C5.925 13.0227 7.97735 15.075 10.5 15.075C13.0227 15.075 15.075 13.0227 15.075 10.5C15.075 7.97735 13.0227 5.925 10.5 5.925C7.97735 5.925 5.925 7.97735 5.925 10.5ZM6.76731 10.5C6.76731 8.44165 8.44165 6.76731 10.5 6.76731C12.5583 6.76731 14.2327 8.44165 14.2327 10.5C14.2327 12.5583 12.5583 14.2327 10.5 14.2327C8.44165 14.2327 6.76731 12.5583 6.76731 10.5Z" fill="white" stroke="white" stroke-width="0.15"/>
<path d="M9.57885 12.9525L9.57923 12.9529C9.66978 13.0461 9.79386 13.1 9.92324 13.1H9.92326H9.92328H9.9233H9.92333H9.92335H9.92337H9.92339H9.92342H9.92344H9.92346H9.92349H9.92351H9.92353H9.92355H9.92358H9.9236H9.92362H9.92365H9.92367H9.92369H9.92371H9.92374H9.92376H9.92378H9.92381H9.92383H9.92385H9.92387H9.9239H9.92392H9.92394H9.92397H9.92399H9.92401H9.92404H9.92406H9.92408H9.92411H9.92413H9.92415H9.92417H9.9242H9.92422H9.92424H9.92427H9.92429H9.92431H9.92434H9.92436H9.92438H9.92441H9.92443H9.92445H9.92448H9.9245H9.92452H9.92455H9.92457H9.92459H9.92462H9.92464H9.92467H9.92469H9.92471H9.92474H9.92476H9.92478H9.92481H9.92483H9.92485H9.92488H9.9249H9.92492H9.92495H9.92497H9.925H9.92502H9.92504H9.92507H9.92509H9.92511H9.92514H9.92516H9.92519H9.92521H9.92523H9.92526H9.92528H9.9253H9.92533H9.92535H9.92538H9.9254H9.92542H9.92545H9.92547H9.9255H9.92552H9.92554H9.92557H9.92559H9.92561H9.92564H9.92566H9.92569H9.92571H9.92573H9.92576H9.92578H9.92581H9.92583H9.92586H9.92588H9.9259H9.92593H9.92595H9.92598H9.926H9.92602H9.92605H9.92607H9.9261H9.92612H9.92614H9.92617H9.92619H9.92622H9.92624H9.92627H9.92629H9.92631H9.92634H9.92636H9.92639H9.92641H9.92644H9.92646H9.92648H9.92651H9.92653H9.92656H9.92658H9.92661H9.92663H9.92665H9.92668H9.9267H9.92673H9.92675H9.92678H9.9268H9.92683H9.92685H9.92687H9.9269H9.92692H9.92695H9.92697H9.927H9.92702H9.92705H9.92707H9.92709H9.92712H9.92714H9.92717H9.92719H9.92722H9.92724H9.92727H9.92729H9.92732H9.92734H9.92736H9.92739H9.92741H9.92744H9.92746H9.92749H9.92751H9.92754H9.92756H9.92759H9.92761H9.92763H9.92766H9.92768H9.92771H9.92773H9.92776H9.92778H9.92781H9.92783H9.92786H9.92788H9.92791H9.92793H9.92796H9.92798H9.928H9.92803H9.92805H9.92808H9.9281H9.92813H9.92815H9.92818H9.9282H9.92823H9.92825H9.92828H9.9283H9.92833H9.92835H9.92838H9.9284H9.92842H9.92845H9.92847H9.9285H9.92852H9.92855H9.92857H9.9286H9.92862H9.92865H9.92867H9.9287H9.92872H9.92875H9.92877H9.9288H9.92882H9.92885H9.92887H9.92889H9.92892H9.92894H9.92897H9.92899H9.92902H9.92904H9.92907H9.92909H9.92912H9.92914H9.92917H9.92919H9.92922H9.92924H9.92927H9.92929H9.92932H9.92934H9.92937H9.92939H9.92942H9.92944H9.92947H9.92949H9.92951H9.92954H9.92956H9.92959H9.92961H9.92964H9.92966H9.92969H9.92971H9.92974H9.92976H9.92979H9.92981H9.92984H9.92986H9.92989H9.92991H9.92994H9.92996H9.92999H9.93001H9.93004H9.93006H9.93008H9.93011H9.93013H9.93016H9.93018H9.93021H9.93023H9.93026H9.93028H9.93031H9.93033H9.93036H9.93038H9.93041H9.93043H9.93046H9.93048H9.93051H9.93053H9.93055H9.93058H9.9306H9.93063H9.93065H9.93068H9.9307H9.93073H9.93075H9.93078H9.9308H9.93083H9.93085H9.93088H9.9309H9.93093H9.93095H9.93097H9.931H9.93102H9.93105H9.93107H9.9311H9.93112H9.93115H9.93117H9.9312H9.93122H9.93125H9.93127H9.93129H9.93132H9.93134H9.93137H9.93139H9.93142H9.93144H9.93147H9.93149H9.93152H9.93154H9.93156H9.93159H9.93161H9.93164H9.93166H9.93169H9.93171H9.93174H9.93176H9.93178H9.93181H9.93183H9.93186H9.93188H9.93191H9.93193H9.93196H9.93198H9.932H9.93203H9.93205H9.93208H9.9321H9.93213H9.93215H9.93218H9.9322H9.93222H9.93225H9.93227H9.9323H9.93232H9.93235H9.93237H9.93239H9.93242H9.93244H9.93247H9.93249H9.93252H9.93254H9.93256H9.93259H9.93261H9.93264H9.93266H9.93269H9.93271H9.93273H9.93276H9.93278H9.93281H9.93283H9.93285H9.93288H9.9329H9.93293H9.93295H9.93297H9.933H9.93302H9.93305H9.93307H9.93309H9.93312H9.93314H9.93317H9.93319H9.93321H9.93324H9.93326H9.93329H9.93331H9.93333H9.93336H9.93338H9.93341H9.93343H9.93345H9.93348H9.9335H9.93353H9.93355H9.93357H9.9336H9.93362H9.93364H9.93367H9.93369H9.93372H9.93374H9.93376H9.93379H9.93381H9.93383H9.93386H9.93388H9.9339H9.93393H9.93395H9.93398H9.934H9.93402H9.93405H9.93407H9.93409H9.93412H9.93414H9.93416H9.93419H9.93421H9.93423H9.93426H9.93428H9.9343H9.93433H9.93435H9.93437H9.9344H9.93442H9.93444H9.93447H9.93449H9.93451H9.93454H9.93456H9.93458H9.93461H9.93463H9.93465H9.93468H9.9347H9.93472H9.93475H9.93477H9.93479H9.93481H9.93484H9.93486H9.93488H9.93491H9.93493H9.93495H9.93498H9.935H9.93502H9.93504H9.93507H9.93509H9.93511H9.93514H9.93516H9.93518H9.9352H9.93523H9.93525H9.93527H9.9353H9.93532H9.93534H9.93536H9.93539H9.93541H9.93543H9.93545H9.93548H9.9355H9.93552H9.93554V13.1L9.93856 13.1C10.074 13.0959 10.2012 13.0327 10.289 12.9284L12.9812 9.72879C13.1555 9.52172 13.136 9.20791 12.936 9.02583C12.7336 8.84075 12.4251 8.86264 12.2489 9.07295C12.2489 9.07299 12.2489 9.07303 12.2488 9.07306L9.89904 11.8659L8.72841 10.6486C8.53907 10.4517 8.22976 10.4517 8.04042 10.6486C7.85319 10.8433 7.85319 11.158 8.04042 11.3527L9.57885 12.9525Z" fill="white" stroke="white" stroke-width="0.2"/>
<path d="M5.85 7H3.15C3.03989 7 3 6.77614 3 6.5C3 6.22386 3.03989 6 3.15 6H5.85C5.96011 6 6 6.22386 6 6.5C6 6.77614 5.96011 7 5.85 7Z" fill="white"/>
<path d="M4.9 9H3.1C3.0266 9 3 8.77614 3 8.5C3 8.22386 3.0266 8 3.1 8H4.9C4.9734 8 5 8.22386 5 8.5C5 8.77614 4.9734 9 4.9 9Z" fill="white"/>
<path d="M6 14.4999C6 14.2238 5.77614 13.9999 5.49999 13.9999L2.50006 14C2.22391 14 2.00005 13.7761 2.00005 13.4999L2.00005 2.49998C2.00005 2.22382 2.22391 1.99996 2.50006 1.99996L13.5 1.99993C13.7761 1.99993 14 2.22379 14 2.49994L14 5C14 5.27615 14.2239 5.50001 14.5 5.50001C14.7762 5.50001 15 5.27615 15 5L15 2.49994C15 1.67151 14.3284 0.999939 13.5 0.999939L2.50006 0.999972C1.67164 0.999972 1.00007 1.67155 1.00007 2.49998L1.00007 13.5C1.00007 14.3284 1.67164 15 2.50006 15L5.50002 14.9999C5.77615 14.9999 6 14.7761 6 14.4999Z" fill="white"/>
<path d="M13 4.5C13 4.22383 12.8715 4 12.7129 4L3.28706 4C3.1286 4 2.99998 4.22383 2.99998 4.5C2.99998 4.77617 3.1286 5 3.28706 5L12.7129 5C12.8715 5 13 4.77617 13 4.5Z" fill="white"/>
</svg>
