<?xml version="1.0" encoding="iso-8859-1"?>
<!-- Generator: Adobe Illustrator 19.0.0, SVG Export Plug-In . SVG Version: 6.00 Build 0)  -->
<svg version="1.1" id="Layer_1" xmlns="http://www.w3.org/2000/svg" xmlns:xlink="http://www.w3.org/1999/xlink" x="0px" y="0px"
	 viewBox="0 0 512 512" style="enable-background:new 0 0 512 512;" xml:space="preserve">
<g>
	<g>
		<path d="M334.82,0H177.18c-9.42,0-17.066,7.646-17.066,17.066c0,9.028,7.014,16.435,15.906,17.032v397.196
			c0,44.508,36.248,80.706,80.791,80.706c44.56,0,80.808-36.214,80.808-80.706V33.91c8.106-1.348,14.267-8.362,14.267-16.844
			C351.886,7.646,344.257,0,334.82,0z M303.486,431.294c0,25.667-20.94,46.573-46.676,46.573c-25.719,0-46.659-20.889-46.659-46.573
			V34.132h93.335V431.294z"/>
	</g>
</g>
<g>
	<g>
		<path d="M272.733,286.796h-31.862c-9.42,0-17.066,7.629-17.066,17.066s7.646,17.066,17.066,17.066h31.862
			c9.438,0,17.066-7.629,17.066-17.066S282.171,286.796,272.733,286.796z"/>
	</g>
</g>
<g>
	<g>
		<path d="M272.733,334.598h-31.862c-9.42,0-17.066,7.629-17.066,17.066c0,9.438,7.646,17.066,17.066,17.066h31.862
			c9.438,0,17.066-7.629,17.066-17.066C289.799,342.227,282.171,334.598,272.733,334.598z"/>
	</g>
</g>
<g>
	<g>
		<path d="M272.733,382.383h-31.862c-9.42,0-17.066,7.629-17.066,17.066s7.646,17.066,17.066,17.066h31.862
			c9.438,0,17.066-7.629,17.066-17.066S282.171,382.383,272.733,382.383z"/>
	</g>
</g>
<g>
</g>
<g>
</g>
<g>
</g>
<g>
</g>
<g>
</g>
<g>
</g>
<g>
</g>
<g>
</g>
<g>
</g>
<g>
</g>
<g>
</g>
<g>
</g>
<g>
</g>
<g>
</g>
<g>
</g>
</svg>
