<svg id="Solid" height="512" viewBox="0 0 512 512" width="512" xmlns="http://www.w3.org/2000/svg"><path d="m120 384a24 24 0 0 0 48 0v-96h-48z"/><path d="m232 160h48v32h-48z"/><path d="m120 96h48v48h-48z"/><path d="m230.605 40h50.789a6.606 6.606 0 0 1 6.606 6.606v26.789a6.605 6.605 0 0 1 -6.605 6.605h-50.789a6.606 6.606 0 0 1 -6.606-6.606v-26.789a6.605 6.605 0 0 1 6.605-6.605z"/><path d="m232 96h48v48h-48z"/><path d="m40 240h16v200h-16z"/><path d="m32 456h448v16h-448z"/><path d="m120 160h48v32h-48z"/><path d="m344 160h48v32h-48z"/><path d="m342.605 40h50.789a6.606 6.606 0 0 1 6.606 6.606v26.789a6.605 6.605 0 0 1 -6.605 6.605h-50.789a6.606 6.606 0 0 1 -6.606-6.606v-26.789a6.605 6.605 0 0 1 6.605-6.605z"/><path d="m344 96h48v48h-48z"/><path d="m118.605 40h50.789a6.606 6.606 0 0 1 6.606 6.606v26.789a6.605 6.605 0 0 1 -6.605 6.605h-50.789a6.606 6.606 0 0 1 -6.606-6.606v-26.789a6.605 6.605 0 0 1 6.605-6.605z"/><path d="m32 208h448v16h-448z"/><path d="m344 384a24 24 0 0 0 48 0v-96h-48z"/><path d="m232 240h48v32h-48z"/><path d="m232 384a24 24 0 0 0 48 0v-96h-48z"/><path d="m344 240h48v32h-48z"/><path d="m456 240h16v200h-16z"/><path d="m120 240h48v32h-48z"/></svg>