<svg width="16" height="16" viewBox="0 0 16 16" fill="none" xmlns="http://www.w3.org/2000/svg">
<path d="M16 2C16 0.895431 15.1046 0 14 0H0V14C0 15.1046 0.895431 16 2 16H14C15.1046 16 16 15.1046 16 14V2Z" fill="#1F7C85"/>
<path fill-rule="evenodd" clip-rule="evenodd" d="M5.1783 8.59685L3.1076 6.64898C2.98557 6.53421 2.96572 6.38049 3.05633 6.25197C3.14688 6.12345 3.33232 6.04225 3.53521 6.04225L5.48614 6.04225L5.48614 0.999939C5.48614 0.999939 5.72574 0.999954 6.02133 0.999954L9.97867 0.999954C10.2743 0.999954 10.5139 0.999967 10.5139 0.999967L10.5139 6.04225L12.4648 6.04225C12.6677 6.04225 12.8531 6.12348 12.9437 6.25197C13.0343 6.38049 13.0144 6.53421 12.8924 6.64898L10.8217 8.59685L10.1437 9.2346L8.42759 10.8489C8.32649 10.944 8.16813 10.9999 7.99997 10.9999C7.83182 10.9999 7.67345 10.944 7.57236 10.8489L5.85628 9.2346L5.1783 8.59685ZM9.44348 6.42115C9.44348 6.63041 9.68309 6.80004 9.97867 6.80004L11.3922 6.80004L8.00003 9.99098L4.60784 6.80004L6.02133 6.80004C6.31691 6.80004 6.55652 6.63041 6.55652 6.42115L6.55652 1.75775L9.44348 1.75775L9.44348 6.42115Z" fill="white"/>
<path d="M3 12.5C3 12.2239 3.22386 12 3.5 12H8L12.5 12C12.7761 12 13 12.2239 13 12.5V12.5C13 12.7761 12.7761 13 12.5 13L3.5 13C3.22386 13 3 12.7761 3 12.5V12.5Z" fill="white"/>
<rect x="1.5" y="1.5" width="13" height="13" rx="1.5" stroke="white"/>
</svg>
