<svg width="16" height="16" viewBox="0 0 16 16" fill="none" xmlns="http://www.w3.org/2000/svg">
<path d="M16 2C16 0.895431 15.1046 0 14 0H0V14C0 15.1046 0.895431 16 2 16H14C15.1046 16 16 15.1046 16 14V2Z" fill="#1F7C85"/>
<path d="M2 1.5H6.5V4.5H1.5V2C1.5 1.72386 1.72386 1.5 2 1.5Z" stroke="white"/>
<path d="M6.5 1.5H14C14.2761 1.5 14.5 1.72386 14.5 2V4.5H6.5V1.5Z" stroke="white"/>
<rect x="1.5" y="4.5" width="5" height="3" stroke="white"/>
<rect x="1.5" y="7.5" width="5" height="3" stroke="white"/>
<rect x="6.5" y="4.5" width="8" height="3" stroke="white"/>
<rect x="10" y="9" width="2" height="6" fill="white"/>
<rect x="14" y="11" width="2" height="6" transform="rotate(90 14 11)" fill="white"/>
</svg>
