<svg width="16" height="16" viewBox="0 0 16 16" fill="none" xmlns="http://www.w3.org/2000/svg">
<path d="M16 2C16 0.895431 15.1046 0 14 0H0V14C0 15.1046 0.895431 16 2 16H14C15.1046 16 16 15.1046 16 14V2Z" fill="#1F7C85"/>
<g clip-path="url(#clip0)">
<path d="M7.99991 6.09094C6.94672 6.09094 6.09082 6.94684 6.09082 8.00003C6.09082 9.05323 6.94672 9.90912 7.99991 9.90912C9.0531 9.90912 9.909 9.05323 9.909 8.00003C9.909 6.94684 9.05307 6.09094 7.99991 6.09094Z" fill="white"/>
<path d="M8.00002 3.22729C4.81818 3.22729 2.10092 5.20637 1 8.00003C2.10092 10.7937 4.81818 12.7728 8.00002 12.7728C11.185 12.7728 13.8991 10.7937 15 8.00003C13.8991 5.20637 11.185 3.22729 8.00002 3.22729ZM8.00002 11.1818C6.24365 11.1818 4.81818 9.75636 4.81818 8C4.81818 6.24363 6.24365 4.8182 8.00002 4.8182C9.75638 4.8182 11.1818 6.24366 11.1818 8.00003C11.1818 9.75639 9.75638 11.1818 8.00002 11.1818Z" fill="white"/>
</g>
<defs>
<clipPath id="clip0">
<rect width="14" height="14" fill="white" transform="translate(1 1)"/>
</clipPath>
</defs>
</svg>
